<?xml version="1.0" standalone="no"?>
<!DOCTYPE svg PUBLIC "-//W3C//DTD SVG 20010904//EN"
 "http://www.w3.org/TR/2001/REC-SVG-20010904/DTD/svg10.dtd">
<svg version="1.0" xmlns="http://www.w3.org/2000/svg"
 width="828.000000pt" height="916.000000pt" viewBox="0 0 828.000000 916.000000"
 preserveAspectRatio="xMidYMid meet">

<g transform="translate(0.000000,916.000000) scale(0.100000,-0.100000)"
fill="#000000" stroke="none">
<path d="M308 9153 c-28 -7 -21 -21 7 -15 14 2 25 8 25 13 0 9 -4 10 -32 2z"/>
<path d="M410 9150 c0 -5 14 -10 30 -10 17 0 30 5 30 10 0 6 -13 10 -30 10
-16 0 -30 -4 -30 -10z"/>
<path d="M530 9150 c0 -5 14 -10 30 -10 17 0 30 5 30 10 0 6 -13 10 -30 10
-16 0 -30 -4 -30 -10z"/>
<path d="M650 9150 c0 -5 14 -10 30 -10 17 0 30 5 30 10 0 6 -13 10 -30 10
-16 0 -30 -4 -30 -10z"/>
<path d="M770 9150 c0 -5 14 -10 30 -10 17 0 30 5 30 10 0 6 -13 10 -30 10
-16 0 -30 -4 -30 -10z"/>
<path d="M890 9150 c0 -5 14 -10 30 -10 17 0 30 5 30 10 0 6 -13 10 -30 10
-16 0 -30 -4 -30 -10z"/>
<path d="M1010 9150 c0 -5 14 -10 30 -10 17 0 30 5 30 10 0 6 -13 10 -30 10
-16 0 -30 -4 -30 -10z"/>
<path d="M1130 9150 c0 -5 14 -10 30 -10 17 0 30 5 30 10 0 6 -13 10 -30 10
-16 0 -30 -4 -30 -10z"/>
<path d="M1250 9150 c0 -5 14 -10 30 -10 17 0 30 5 30 10 0 6 -13 10 -30 10
-16 0 -30 -4 -30 -10z"/>
<path d="M1370 9150 c0 -5 14 -10 30 -10 17 0 30 5 30 10 0 6 -13 10 -30 10
-16 0 -30 -4 -30 -10z"/>
<path d="M1490 9150 c0 -5 14 -10 30 -10 17 0 30 5 30 10 0 6 -13 10 -30 10
-16 0 -30 -4 -30 -10z"/>
<path d="M1610 9150 c0 -5 14 -10 30 -10 17 0 30 5 30 10 0 6 -13 10 -30 10
-16 0 -30 -4 -30 -10z"/>
<path d="M1730 9150 c0 -5 14 -10 30 -10 17 0 30 5 30 10 0 6 -13 10 -30 10
-16 0 -30 -4 -30 -10z"/>
<path d="M1850 9150 c0 -5 14 -10 30 -10 17 0 30 5 30 10 0 6 -13 10 -30 10
-16 0 -30 -4 -30 -10z"/>
<path d="M1970 9150 c0 -5 14 -10 30 -10 17 0 30 5 30 10 0 6 -13 10 -30 10
-16 0 -30 -4 -30 -10z"/>
<path d="M2090 9150 c0 -5 14 -10 30 -10 17 0 30 5 30 10 0 6 -13 10 -30 10
-16 0 -30 -4 -30 -10z"/>
<path d="M2210 9150 c0 -5 14 -10 30 -10 17 0 30 5 30 10 0 6 -13 10 -30 10
-16 0 -30 -4 -30 -10z"/>
<path d="M2330 9150 c0 -5 14 -10 30 -10 17 0 30 5 30 10 0 6 -13 10 -30 10
-16 0 -30 -4 -30 -10z"/>
<path d="M2450 9150 c0 -5 14 -10 30 -10 17 0 30 5 30 10 0 6 -13 10 -30 10
-16 0 -30 -4 -30 -10z"/>
<path d="M2570 9150 c0 -5 14 -10 30 -10 17 0 30 5 30 10 0 6 -13 10 -30 10
-16 0 -30 -4 -30 -10z"/>
<path d="M2690 9150 c0 -5 14 -10 30 -10 17 0 30 5 30 10 0 6 -13 10 -30 10
-16 0 -30 -4 -30 -10z"/>
<path d="M2810 9150 c0 -5 14 -10 30 -10 17 0 30 5 30 10 0 6 -13 10 -30 10
-16 0 -30 -4 -30 -10z"/>
<path d="M2930 9150 c0 -5 14 -10 30 -10 17 0 30 5 30 10 0 6 -13 10 -30 10
-16 0 -30 -4 -30 -10z"/>
<path d="M3050 9150 c0 -5 14 -10 30 -10 17 0 30 5 30 10 0 6 -13 10 -30 10
-16 0 -30 -4 -30 -10z"/>
<path d="M3170 9150 c0 -5 14 -10 30 -10 17 0 30 5 30 10 0 6 -13 10 -30 10
-16 0 -30 -4 -30 -10z"/>
<path d="M3290 9150 c0 -5 14 -10 30 -10 17 0 30 5 30 10 0 6 -13 10 -30 10
-16 0 -30 -4 -30 -10z"/>
<path d="M3410 9150 c0 -5 14 -10 30 -10 17 0 30 5 30 10 0 6 -13 10 -30 10
-16 0 -30 -4 -30 -10z"/>
<path d="M3530 9150 c0 -5 14 -10 30 -10 17 0 30 5 30 10 0 6 -13 10 -30 10
-16 0 -30 -4 -30 -10z"/>
<path d="M3650 9150 c0 -5 14 -10 30 -10 17 0 30 5 30 10 0 6 -13 10 -30 10
-16 0 -30 -4 -30 -10z"/>
<path d="M3770 9150 c0 -5 14 -10 30 -10 17 0 30 5 30 10 0 6 -13 10 -30 10
-16 0 -30 -4 -30 -10z"/>
<path d="M3890 9150 c0 -5 14 -10 30 -10 17 0 30 5 30 10 0 6 -13 10 -30 10
-16 0 -30 -4 -30 -10z"/>
<path d="M4010 9150 c0 -5 14 -10 30 -10 17 0 30 5 30 10 0 6 -13 10 -30 10
-16 0 -30 -4 -30 -10z"/>
<path d="M4130 9150 c0 -5 14 -10 30 -10 17 0 30 5 30 10 0 6 -13 10 -30 10
-16 0 -30 -4 -30 -10z"/>
<path d="M4250 9150 c0 -5 14 -10 30 -10 17 0 30 5 30 10 0 6 -13 10 -30 10
-16 0 -30 -4 -30 -10z"/>
<path d="M4370 9150 c0 -5 14 -10 30 -10 17 0 30 5 30 10 0 6 -13 10 -30 10
-16 0 -30 -4 -30 -10z"/>
<path d="M4490 9150 c0 -5 14 -10 30 -10 17 0 30 5 30 10 0 6 -13 10 -30 10
-16 0 -30 -4 -30 -10z"/>
<path d="M4610 9150 c0 -5 14 -10 30 -10 17 0 30 5 30 10 0 6 -13 10 -30 10
-16 0 -30 -4 -30 -10z"/>
<path d="M4730 9150 c0 -5 14 -10 30 -10 17 0 30 5 30 10 0 6 -13 10 -30 10
-16 0 -30 -4 -30 -10z"/>
<path d="M4850 9150 c0 -5 14 -10 30 -10 17 0 30 5 30 10 0 6 -13 10 -30 10
-16 0 -30 -4 -30 -10z"/>
<path d="M4970 9150 c0 -5 14 -10 30 -10 17 0 30 5 30 10 0 6 -13 10 -30 10
-16 0 -30 -4 -30 -10z"/>
<path d="M5090 9150 c0 -5 14 -10 30 -10 17 0 30 5 30 10 0 6 -13 10 -30 10
-16 0 -30 -4 -30 -10z"/>
<path d="M5210 9150 c0 -5 14 -10 30 -10 17 0 30 5 30 10 0 6 -13 10 -30 10
-16 0 -30 -4 -30 -10z"/>
<path d="M5330 9150 c0 -5 14 -10 30 -10 17 0 30 5 30 10 0 6 -13 10 -30 10
-16 0 -30 -4 -30 -10z"/>
<path d="M5450 9150 c0 -5 14 -10 30 -10 17 0 30 5 30 10 0 6 -13 10 -30 10
-16 0 -30 -4 -30 -10z"/>
<path d="M5570 9150 c0 -5 14 -10 30 -10 17 0 30 5 30 10 0 6 -13 10 -30 10
-16 0 -30 -4 -30 -10z"/>
<path d="M5690 9150 c0 -5 14 -10 30 -10 17 0 30 5 30 10 0 6 -13 10 -30 10
-16 0 -30 -4 -30 -10z"/>
<path d="M5810 9150 c0 -5 14 -10 30 -10 17 0 30 5 30 10 0 6 -13 10 -30 10
-16 0 -30 -4 -30 -10z"/>
<path d="M5930 9150 c0 -5 14 -10 30 -10 17 0 30 5 30 10 0 6 -13 10 -30 10
-16 0 -30 -4 -30 -10z"/>
<path d="M6050 9150 c0 -5 14 -10 30 -10 17 0 30 5 30 10 0 6 -13 10 -30 10
-16 0 -30 -4 -30 -10z"/>
<path d="M6170 9150 c0 -5 14 -10 30 -10 17 0 30 5 30 10 0 6 -13 10 -30 10
-16 0 -30 -4 -30 -10z"/>
<path d="M6290 9150 c0 -5 14 -10 30 -10 17 0 30 5 30 10 0 6 -13 10 -30 10
-16 0 -30 -4 -30 -10z"/>
<path d="M6410 9150 c0 -5 14 -10 30 -10 17 0 30 5 30 10 0 6 -13 10 -30 10
-16 0 -30 -4 -30 -10z"/>
<path d="M6530 9150 c0 -5 14 -10 30 -10 17 0 30 5 30 10 0 6 -13 10 -30 10
-16 0 -30 -4 -30 -10z"/>
<path d="M6650 9150 c0 -5 14 -10 30 -10 17 0 30 5 30 10 0 6 -13 10 -30 10
-16 0 -30 -4 -30 -10z"/>
<path d="M6770 9150 c0 -5 14 -10 30 -10 17 0 30 5 30 10 0 6 -13 10 -30 10
-16 0 -30 -4 -30 -10z"/>
<path d="M6890 9150 c0 -5 14 -10 30 -10 17 0 30 5 30 10 0 6 -13 10 -30 10
-16 0 -30 -4 -30 -10z"/>
<path d="M7010 9150 c0 -5 14 -10 30 -10 17 0 30 5 30 10 0 6 -13 10 -30 10
-16 0 -30 -4 -30 -10z"/>
<path d="M7130 9150 c0 -5 14 -10 30 -10 17 0 30 5 30 10 0 6 -13 10 -30 10
-16 0 -30 -4 -30 -10z"/>
<path d="M7250 9150 c0 -5 14 -10 30 -10 17 0 30 5 30 10 0 6 -13 10 -30 10
-16 0 -30 -4 -30 -10z"/>
<path d="M7370 9150 c0 -5 14 -10 30 -10 17 0 30 5 30 10 0 6 -13 10 -30 10
-16 0 -30 -4 -30 -10z"/>
<path d="M7490 9150 c0 -5 14 -10 30 -10 17 0 30 5 30 10 0 6 -13 10 -30 10
-16 0 -30 -4 -30 -10z"/>
<path d="M7610 9150 c0 -5 14 -10 30 -10 17 0 30 5 30 10 0 6 -13 10 -30 10
-16 0 -30 -4 -30 -10z"/>
<path d="M7730 9150 c0 -5 14 -10 30 -10 17 0 30 5 30 10 0 6 -13 10 -30 10
-16 0 -30 -4 -30 -10z"/>
<path d="M7850 9150 c0 -5 14 -10 30 -10 17 0 30 5 30 10 0 6 -13 10 -30 10
-16 0 -30 -4 -30 -10z"/>
<path d="M7975 9140 c3 -5 15 -10 26 -10 11 0 17 5 14 10 -3 6 -15 10 -26 10
-11 0 -17 -4 -14 -10z"/>
<path d="M203 9118 c-31 -15 -29 -30 2 -16 14 6 25 15 25 20 0 9 1 10 -27 -4z"/>
<path d="M8099 9089 c13 -11 27 -17 30 -13 7 7 -28 34 -43 34 -6 -1 0 -10 13
-21z"/>
<path d="M106 9045 c-9 -9 -16 -22 -16 -28 0 -6 10 -2 22 11 12 12 19 24 16
27 -3 3 -13 -1 -22 -10z"/>
<path d="M8187 9006 c10 -13 22 -22 26 -19 9 6 -21 43 -35 43 -5 0 -1 -11 9
-24z"/>
<path d="M31 8934 c-9 -20 -9 -25 0 -22 14 5 32 48 20 48 -4 0 -13 -12 -20
-26z"/>
<path d="M8240 8918 c0 -7 5 -20 10 -28 8 -12 10 -11 10 7 0 12 -4 25 -10 28
-5 3 -10 0 -10 -7z"/>
<path d="M3056 8895 c-16 -24 -15 -25 3 -25 11 0 24 7 29 16 8 14 10 14 21 0
14 -17 41 -22 41 -8 0 16 -36 42 -57 42 -11 0 -28 -11 -37 -25z"/>
<path d="M3782 8898 c8 -12 26 -25 38 -26 23 -4 23 -3 8 20 -8 12 -26 25 -38
26 -23 4 -23 3 -8 -20z"/>
<path d="M4660 8790 c0 -112 1 -120 20 -120 16 0 19 8 22 61 2 45 8 65 20 72
30 19 48 -8 48 -74 0 -52 2 -59 20 -59 18 0 20 7 20 66 0 83 -11 104 -53 104
-18 0 -38 -5 -45 -12 -9 -9 -12 -2 -12 35 0 40 -3 47 -20 47 -19 0 -20 -7 -20
-120z"/>
<path d="M2850 8780 l0 -110 70 0 c63 0 70 2 70 20 0 17 -7 20 -50 20 l-50 0
0 90 c0 83 -1 90 -20 90 -19 0 -20 -7 -20 -110z"/>
<path d="M3300 8780 l0 -110 25 0 c23 0 25 3 25 50 l0 50 50 0 50 0 0 -50 c0
-47 2 -50 25 -50 l25 0 0 110 0 110 -25 0 c-23 0 -25 -4 -25 -45 l0 -45 -50 0
-50 0 0 45 c0 41 -2 45 -25 45 l-25 0 0 -110z"/>
<path d="M4430 8780 c0 -103 1 -110 20 -110 16 0 20 7 20 34 0 18 7 39 15 46
12 10 20 4 47 -34 22 -32 39 -46 55 -46 31 0 29 6 -17 69 l-39 54 19 27 c11
15 26 33 35 40 22 18 19 30 -8 30 -14 0 -34 -15 -57 -45 -19 -24 -38 -44 -42
-45 -5 0 -8 20 -8 45 0 38 -3 45 -20 45 -19 0 -20 -7 -20 -110z"/>
<path d="M6 8827 c-5 -15 -6 -31 -2 -34 11 -11 18 5 14 34 l-4 28 -8 -28z"/>
<path d="M3040 8820 c-29 -29 -28 -102 2 -130 28 -26 89 -27 111 -2 10 10 17
22 17 25 0 11 -29 8 -50 -5 -23 -15 -53 -2 -58 26 -3 13 6 16 57 16 l61 0 -6
28 c-4 15 -14 35 -22 45 -21 24 -86 23 -112 -3z m88 -32 c3 -15 -4 -18 -32
-18 -38 0 -44 8 -24 28 17 17 52 11 56 -10z"/>
<path d="M3564 8819 c-29 -32 -26 -105 5 -130 25 -21 71 -25 101 -9 23 12 44
73 35 102 -13 42 -36 58 -80 58 -30 0 -47 -6 -61 -21z m85 -23 c17 -20 10 -77
-11 -89 -24 -16 -48 8 -48 47 0 49 34 73 59 42z"/>
<path d="M3768 8829 c-33 -19 -20 -32 26 -25 35 6 45 4 50 -9 9 -25 9 -25 -28
-25 -48 0 -81 -29 -72 -63 8 -32 46 -45 82 -28 15 6 24 7 24 1 0 -6 9 -10 20
-10 18 0 20 7 20 69 0 50 -4 74 -16 85 -17 18 -80 21 -106 5z m77 -89 c9 -15
-14 -40 -35 -40 -28 0 -33 29 -7 40 30 12 35 12 42 0z"/>
<path d="M3940 8755 c0 -78 2 -85 20 -85 17 0 20 7 20 53 0 64 19 98 47 81 14
-8 19 -26 21 -73 3 -53 6 -61 22 -61 18 0 20 7 20 73 0 82 -9 97 -55 97 -17 0
-36 -5 -43 -12 -9 -9 -12 -9 -12 0 0 7 -9 12 -20 12 -18 0 -20 -7 -20 -85z"/>
<path d="M4164 8832 c-34 -22 -44 -93 -19 -129 19 -27 48 -34 80 -17 25 13 26
13 23 -14 -3 -26 -5 -27 -55 -24 -55 3 -69 -9 -34 -28 23 -12 91 -13 107 -2
24 16 34 55 34 136 0 78 -2 86 -19 86 -11 0 -21 -6 -24 -12 -4 -10 -7 -10 -18
0 -14 13 -58 16 -75 4z m75 -36 c7 -8 11 -30 9 -48 -2 -28 -7 -34 -31 -36 -21
-3 -29 2 -36 20 -19 51 27 101 58 64z"/>
<path d="M4878 8829 c-33 -19 -20 -32 26 -25 35 6 45 4 50 -9 9 -25 9 -25 -28
-25 -48 0 -81 -29 -72 -63 8 -32 46 -45 82 -28 15 6 24 7 24 1 0 -6 9 -10 20
-10 18 0 20 7 20 69 0 50 -4 74 -16 85 -17 18 -80 21 -106 5z m77 -89 c9 -15
-14 -40 -35 -40 -28 0 -33 29 -7 40 30 12 35 12 42 0z"/>
<path d="M5040 8755 c0 -84 0 -85 25 -85 23 0 24 4 27 61 2 45 8 65 20 73 27
17 41 -6 46 -74 4 -52 7 -60 24 -60 19 0 20 6 16 76 -2 52 -8 78 -18 84 -21
14 -64 12 -78 -2 -9 -9 -12 -9 -12 0 0 7 -11 12 -25 12 -25 0 -25 -1 -25 -85z"/>
<path d="M5274 8832 c-34 -22 -44 -93 -19 -129 19 -27 48 -34 80 -17 25 13 26
13 23 -14 -3 -26 -5 -27 -55 -24 -55 3 -69 -9 -34 -28 23 -12 91 -13 107 -2
24 16 34 55 34 136 0 78 -2 86 -19 86 -11 0 -21 -6 -24 -12 -4 -10 -7 -10 -18
0 -14 13 -58 16 -75 4z m75 -36 c7 -8 11 -30 9 -48 -2 -28 -7 -34 -31 -36 -21
-3 -29 2 -36 20 -19 51 27 101 58 64z"/>
<path d="M8260 8785 c0 -14 5 -25 10 -25 6 0 10 11 10 25 0 14 -4 25 -10 25
-5 0 -10 -11 -10 -25z"/>
<path d="M0 8730 c0 -16 5 -30 10 -30 6 0 10 14 10 30 0 17 -4 30 -10 30 -5 0
-10 -13 -10 -30z"/>
<path d="M8260 8665 c0 -14 5 -25 10 -25 6 0 10 11 10 25 0 14 -4 25 -10 25
-5 0 -10 -11 -10 -25z"/>
<path d="M0 8610 c0 -16 5 -30 10 -30 6 0 10 14 10 30 0 17 -4 30 -10 30 -5 0
-10 -13 -10 -30z"/>
<path d="M8260 8545 c0 -14 5 -25 10 -25 6 0 10 11 10 25 0 14 -4 25 -10 25
-5 0 -10 -11 -10 -25z"/>
<path d="M0 8490 c0 -16 5 -30 10 -30 6 0 10 14 10 30 0 17 -4 30 -10 30 -5 0
-10 -13 -10 -30z"/>
<path d="M4412 8468 c-30 -15 -48 -77 -36 -126 16 -66 96 -84 122 -26 26 55
-32 104 -88 74 -17 -9 -20 -8 -20 7 0 28 29 63 52 63 12 0 30 -7 40 -17 10 -9
18 -11 18 -5 0 12 -39 42 -55 41 -5 0 -20 -5 -33 -11z m66 -90 c19 -19 14 -55
-10 -72 -12 -9 -26 -16 -30 -16 -13 0 -48 39 -48 54 0 37 61 61 88 34z"/>
<path d="M4592 8468 c-51 -25 -52 -148 -1 -177 56 -31 114 21 87 77 -13 27
-61 43 -79 25 -4 -4 6 -8 24 -8 25 0 33 -5 41 -29 9 -24 7 -31 -13 -47 -28
-23 -32 -23 -56 -5 -24 18 -30 101 -9 133 17 27 59 30 73 6 5 -10 13 -14 18
-10 9 10 -33 47 -51 46 -6 0 -21 -5 -34 -11z"/>
<path d="M4761 8461 c-48 -48 -28 -172 29 -179 44 -5 63 19 68 86 4 55 2 63
-21 86 -31 31 -50 33 -76 7z m67 -13 c28 -36 26 -113 -4 -143 -20 -20 -30 -19
-54 5 -23 23 -27 84 -8 125 12 27 48 34 66 13z"/>
<path d="M4141 8457 c-1 -14 -6 -17 -23 -12 l-23 7 23 -17 c12 -9 23 -26 23
-38 1 -18 2 -18 6 -4 3 13 10 16 26 11 21 -6 21 -6 3 9 -19 14 -19 14 0 26 18
11 18 12 -3 6 -15 -4 -23 -1 -26 12 -4 17 -5 17 -6 0z"/>
<path d="M4281 8457 c-1 -14 -6 -17 -23 -12 -22 7 -22 6 -4 -8 19 -14 19 -14
0 -26 -18 -11 -18 -12 3 -6 15 4 23 1 26 -12 4 -17 5 -17 6 0 1 14 6 17 24 12
21 -7 21 -6 3 8 -19 14 -19 14 0 26 18 11 18 12 -3 6 -15 -4 -23 -1 -26 12 -4
17 -5 17 -6 0z"/>
<path d="M3445 8440 c-16 -4 -26 -8 -21 -9 6 0 1 -8 -10 -17 -19 -15 -19 -15
1 -6 11 5 27 7 35 4 8 -2 12 -1 8 3 -4 4 0 14 10 21 19 15 19 15 -23 4z"/>
<path d="M3556 8437 c14 -8 14 -10 0 -20 -13 -10 -9 -12 25 -12 29 0 36 3 26
9 -13 9 -14 11 -1 20 11 8 5 11 -26 11 -29 1 -36 -2 -24 -8z"/>
<path d="M3693 8440 c9 -6 15 -15 12 -19 -2 -5 9 -11 27 -13 26 -4 28 -3 15 7
-9 7 -15 14 -12 17 3 2 -1 5 -7 5 -7 0 -22 4 -33 8 -18 6 -18 5 -2 -5z"/>
<path d="M3870 8441 c-14 -3 -26 -12 -27 -18 -4 -18 8 -16 37 7 14 11 23 19
20 19 -3 -1 -16 -4 -30 -8z"/>
<path d="M4005 8440 c-16 -4 -26 -8 -21 -9 6 0 1 -8 -10 -17 -19 -15 -19 -15
1 -6 11 5 27 7 35 4 8 -2 12 -1 8 3 -4 4 0 14 10 21 19 15 19 15 -23 4z"/>
<path d="M8260 8425 c0 -14 5 -25 10 -25 6 0 10 11 10 25 0 14 -4 25 -10 25
-5 0 -10 -11 -10 -25z"/>
<path d="M3870 8416 c0 -2 7 -7 16 -10 8 -3 12 -2 9 4 -6 10 -25 14 -25 6z"/>
<path d="M4110 8410 c-9 -6 -10 -10 -3 -10 6 0 15 5 18 10 8 12 4 12 -15 0z"/>
<path d="M0 8370 c0 -16 5 -30 10 -30 6 0 10 14 10 30 0 17 -4 30 -10 30 -5 0
-10 -13 -10 -30z"/>
<path d="M8260 8305 c0 -14 5 -25 10 -25 6 0 10 11 10 25 0 14 -4 25 -10 25
-5 0 -10 -11 -10 -25z"/>
<path d="M0 8250 c0 -16 5 -30 10 -30 6 0 10 14 10 30 0 17 -4 30 -10 30 -5 0
-10 -13 -10 -30z"/>
<path d="M8260 8185 c0 -14 5 -25 10 -25 6 0 10 11 10 25 0 14 -4 25 -10 25
-5 0 -10 -11 -10 -25z"/>
<path d="M0 8130 c0 -16 5 -30 10 -30 6 0 10 14 10 30 0 17 -4 30 -10 30 -5 0
-10 -13 -10 -30z"/>
<path d="M8260 8065 c0 -14 5 -25 10 -25 6 0 10 11 10 25 0 14 -4 25 -10 25
-5 0 -10 -11 -10 -25z"/>
<path d="M360 8041 c-69 -21 -121 -65 -156 -131 -18 -34 -19 -145 -19 -3755 0
-3610 1 -3721 19 -3755 26 -49 64 -88 111 -113 l40 -22 3725 0 3725 0 40 22
c47 25 85 64 111 113 18 34 19 145 19 3755 l0 3720 -22 40 c-25 47 -64 85
-113 111 -34 18 -146 19 -3745 21 -2041 1 -3721 -2 -3735 -6z m4027 -452 c8
-8 17 -7 31 2 12 7 24 11 27 8 11 -11 -6 -37 -28 -43 -22 -6 -67 17 -67 34 0
13 23 13 37 -1z m-876 -43 c20 -32 19 -87 -2 -113 -7 -7 -6 -14 1 -18 5 -3 10
-10 10 -16 0 -10 -33 -12 -43 -3 -4 4 -21 8 -39 9 -42 4 -78 45 -78 89 0 87
107 124 151 52z m161 17 c22 -19 24 -56 3 -73 -13 -11 -13 -15 0 -41 19 -36
19 -39 -4 -39 -11 0 -28 13 -38 30 -9 17 -23 30 -30 30 -8 0 -13 -12 -13 -30
0 -23 -4 -30 -20 -30 -18 0 -20 7 -20 85 l0 85 52 0 c34 0 58 -6 70 -17z m236
-3 c30 -28 30 -97 2 -128 -16 -17 -32 -22 -74 -22 l-53 0 -5 43 c-2 23 -3 61
0 85 l4 42 52 0 c39 0 58 -5 74 -20z m324 -26 l33 -47 3 47 c3 38 7 46 23 46
17 0 19 -7 19 -85 0 -74 -2 -85 -17 -85 -10 0 -35 24 -55 52 l-38 52 0 -52 c0
-45 -3 -52 -20 -52 -18 0 -20 7 -20 85 0 77 2 85 19 85 12 0 33 -19 53 -46z
m-1324 -93 c44 -96 66 -131 95 -155 l39 -31 996 -3 c549 -2 1016 0 1040 3 78
11 129 79 209 278 l15 37 1017 -2 1018 -3 49 -30 c30 -19 60 -49 79 -79 l30
-49 0 -3351 c0 -3151 -1 -3353 -17 -3382 -22 -41 -71 -90 -112 -112 -29 -16
-226 -17 -3286 -17 -3082 0 -3257 1 -3287 18 -48 26 -100 84 -118 131 -14 37
-15 373 -13 3376 l3 3335 28 47 c30 51 70 84 126 104 29 11 238 13 1034 11
l997 -2 58 -124z m1150 87 c7 -7 12 -36 12 -65 l0 -53 -49 0 c-81 0 -97 52
-23 75 43 13 41 28 -3 19 -19 -3 -35 -2 -35 3 0 18 25 33 55 33 17 0 36 -5 43
-12z m392 -7 c5 -11 10 -40 10 -65 l0 -45 -57 2 c-53 2 -58 4 -61 26 -4 29 20
51 55 51 13 0 23 5 23 11 0 7 -14 8 -41 4 -39 -7 -40 -6 -30 14 16 29 85 30
101 2z m147 7 c8 -6 13 -33 13 -64 0 -47 -3 -54 -19 -54 -17 0 -20 8 -23 48
-2 34 -7 47 -18 47 -11 0 -16 -13 -18 -47 -3 -40 -6 -48 -23 -48 -17 0 -19 7
-19 64 l0 64 47 0 c27 0 54 -4 60 -10z m173 -48 c0 -76 -13 -108 -46 -116 -31
-8 -75 5 -82 25 -3 10 4 12 35 6 31 -5 42 -3 46 9 5 12 0 14 -23 9 -17 -3 -36
0 -44 6 -24 20 -30 69 -12 96 14 21 23 24 71 24 l55 -1 0 -58z"/>
<path d="M3416 7534 c-28 -28 -11 -94 24 -94 5 0 7 7 3 17 -5 13 -2 15 15 11
24 -7 37 17 25 48 -13 36 -42 44 -67 18z"/>
<path d="M3590 7525 c0 -18 5 -25 19 -25 26 0 44 23 29 38 -22 22 -48 14 -48
-13z"/>
<path d="M3827 7543 c-13 -12 -7 -33 8 -33 8 0 15 -7 15 -15 0 -8 -7 -15 -15
-15 -8 0 -15 -9 -15 -20 0 -22 20 -26 51 -10 13 7 19 21 19 45 0 24 -6 38 -19
45 -23 12 -35 13 -44 3z"/>
<path d="M2510 7030 c6 -11 17 -20 25 -20 13 0 13 3 3 20 -7 11 -19 20 -26 20
-10 0 -10 -5 -2 -20z"/>
<path d="M4735 7010 c-4 -6 -1 -10 5 -10 7 0 10 -7 6 -15 -3 -9 0 -15 9 -15
19 0 19 36 0 43 -8 4 -17 2 -20 -3z"/>
<path d="M1935 6990 c-16 -17 -16 -20 -2 -20 9 0 19 5 23 11 4 8 9 8 17 0 6
-6 18 -11 26 -11 11 0 10 4 -4 20 -10 11 -23 20 -30 20 -7 0 -20 -9 -30 -20z"/>
<path d="M2460 6995 c-16 -20 -5 -32 14 -16 10 8 16 9 21 1 3 -5 13 -10 22
-10 14 0 14 3 -2 20 -22 24 -38 25 -55 5z"/>
<path d="M2925 6990 c10 -11 25 -20 33 -20 12 0 12 4 -3 20 -10 11 -25 20 -33
20 -12 0 -12 -4 3 -20z"/>
<path d="M3822 6998 c-16 -16 -15 -28 1 -28 7 0 18 9 25 20 10 16 10 20 -1 20
-7 0 -18 -5 -25 -12z"/>
<path d="M4210 6995 c-16 -20 -5 -32 14 -16 10 8 16 9 21 1 3 -5 13 -10 21
-10 12 0 12 3 2 20 -15 24 -41 26 -58 5z"/>
<path d="M5080 7002 c0 -13 23 -32 37 -32 11 0 11 5 3 20 -10 19 -40 28 -40
12z"/>
<path d="M5625 6990 c-16 -17 -16 -20 -2 -20 9 0 19 5 23 11 4 8 9 8 17 0 6
-6 18 -11 26 -11 11 0 10 4 -4 20 -10 11 -23 20 -30 20 -7 0 -20 -9 -30 -20z"/>
<path d="M6160 7002 c0 -13 23 -32 37 -32 11 0 11 5 3 20 -10 19 -40 28 -40
12z"/>
<path d="M1760 6910 c0 -73 3 -90 15 -90 10 0 15 10 15 34 0 47 9 66 31 66 16
0 19 -8 19 -50 0 -43 3 -50 20 -50 17 0 20 7 20 39 0 59 -15 91 -43 91 -13 0
-28 -5 -35 -12 -9 -9 -12 -4 -12 25 0 26 -4 37 -15 37 -12 0 -15 -17 -15 -90z"/>
<path d="M2370 6985 c0 -8 7 -15 15 -15 8 0 15 7 15 15 0 8 -7 15 -15 15 -8 0
-15 -7 -15 -15z"/>
<path d="M3500 6985 c0 -8 7 -15 15 -15 8 0 15 7 15 15 0 8 -7 15 -15 15 -8 0
-15 -7 -15 -15z"/>
<path d="M4115 6991 c-7 -12 12 -24 25 -16 11 7 4 25 -10 25 -5 0 -11 -4 -15
-9z"/>
<path d="M1580 6905 c0 -69 3 -85 15 -85 11 0 15 12 15 50 0 28 3 50 8 50 4 0
22 -23 41 -50 50 -73 61 -67 61 35 0 68 -3 85 -14 85 -11 0 -16 -15 -18 -52
l-3 -53 -38 53 c-56 76 -67 70 -67 -33z"/>
<path d="M3630 6983 c0 -4 12 -43 26 -86 22 -67 29 -78 47 -75 16 2 26 21 48
86 25 75 26 82 10 82 -14 0 -23 -17 -38 -67 l-20 -68 -19 65 c-13 43 -26 66
-37 68 -9 2 -17 0 -17 -5z"/>
<path d="M3940 6956 c0 -20 -4 -36 -10 -36 -5 0 -10 -7 -10 -15 0 -8 5 -15 10
-15 6 0 10 -16 10 -35 0 -35 0 -35 45 -35 58 0 95 32 95 83 0 53 -27 79 -88
85 l-52 5 0 -37z m97 -22 c15 -24 15 -29 2 -53 -19 -33 -69 -43 -69 -13 0 11
7 22 15 26 8 3 15 10 15 16 0 5 -7 10 -15 10 -8 0 -15 9 -15 20 0 31 45 26 67
-6z"/>
<path d="M4530 6975 c0 -9 9 -15 25 -15 24 0 25 -2 25 -70 0 -63 2 -70 20 -70
18 0 20 7 20 70 0 68 1 70 25 70 16 0 25 6 25 15 0 12 -14 15 -70 15 -56 0
-70 -3 -70 -15z"/>
<path d="M5270 6905 c0 -68 3 -85 14 -85 11 0 16 14 18 51 l3 50 38 -50 c55
-75 67 -69 67 34 0 69 -3 85 -15 85 -11 0 -15 -12 -15 -50 0 -27 -3 -50 -7
-50 -5 0 -24 23 -43 50 -51 72 -60 66 -60 -35z"/>
<path d="M5960 6905 c0 -77 2 -86 18 -83 11 2 17 13 17 33 1 27 4 30 38 33 36
3 37 3 37 -32 0 -29 4 -36 20 -36 18 0 20 7 20 85 0 78 -2 85 -20 85 -16 0
-20 -7 -20 -35 0 -33 -2 -35 -34 -35 -32 0 -35 3 -38 32 -2 22 -9 34 -20 36
-16 3 -18 -6 -18 -83z"/>
<path d="M2280 6965 c0 -8 -4 -15 -10 -15 -5 0 -10 -7 -10 -15 0 -8 4 -15 9
-15 6 0 11 -21 13 -47 3 -44 5 -48 31 -51 28 -3 38 15 12 24 -9 4 -15 19 -15
40 0 24 5 34 15 34 8 0 15 7 15 15 0 8 -7 15 -15 15 -8 0 -15 7 -15 15 0 8 -7
15 -15 15 -8 0 -15 -7 -15 -15z"/>
<path d="M2800 6965 c0 -8 -4 -15 -10 -15 -5 0 -10 -7 -10 -15 0 -8 5 -15 10
-15 6 0 10 -17 10 -38 0 -41 14 -62 42 -62 21 0 23 16 4 35 -14 15 -10 65 5
65 14 0 10 18 -8 40 -21 24 -43 26 -43 5z"/>
<path d="M3020 6965 c0 -8 -9 -15 -20 -15 -16 0 -20 -7 -20 -34 0 -47 -9 -66
-30 -66 -21 0 -30 19 -30 66 0 24 -5 34 -15 34 -18 0 -21 -80 -5 -111 12 -21
50 -25 68 -7 9 9 12 9 12 0 0 -7 7 -12 15 -12 12 0 15 13 15 55 0 42 3 55 15
55 9 0 15 9 15 25 0 14 -4 25 -10 25 -5 0 -10 -7 -10 -15z"/>
<path d="M4814 6965 c-4 -8 -14 -15 -25 -15 -14 0 -18 -9 -21 -47 -3 -40 -6
-48 -23 -48 -17 0 -20 8 -23 48 -2 34 -7 47 -18 47 -12 0 -14 -12 -12 -56 3
-66 23 -88 58 -66 12 7 20 8 20 2 0 -5 7 -10 15 -10 11 0 15 12 15 50 0 39 4
52 20 60 11 6 20 20 20 30 0 23 -18 27 -26 5z"/>
<path d="M1924 6936 c-25 -19 -11 -32 20 -18 19 8 27 8 36 -2 8 -11 3 -16 -27
-23 -33 -8 -38 -12 -38 -38 0 -29 1 -30 53 -31 l52 -2 0 52 c0 29 -5 57 -12
64 -16 16 -60 15 -84 -2z m60 -65 c3 -5 -1 -14 -10 -21 -11 -10 -18 -10 -27
-1 -9 9 -9 14 3 21 19 12 27 12 34 1z"/>
<path d="M2050 6885 c0 -58 2 -65 20 -65 17 0 20 7 20 50 0 42 3 50 19 50 22
0 31 -19 31 -66 0 -24 5 -34 15 -34 11 0 15 13 15 53 0 57 -12 77 -45 77 -12
0 -26 -5 -33 -12 -9 -9 -12 -9 -12 0 0 7 -7 12 -15 12 -12 0 -15 -14 -15 -65z"/>
<path d="M2370 6885 c0 -51 3 -65 15 -65 12 0 15 14 15 65 0 51 -3 65 -15 65
-12 0 -15 -14 -15 -65z"/>
<path d="M2447 6932 c-21 -23 -22 -76 -1 -96 20 -20 68 -21 84 -1 17 21 6 29
-20 15 -16 -9 -25 -9 -36 1 -25 20 -15 29 31 29 49 0 56 10 29 48 -19 27 -64
29 -87 4z m63 -23 c0 -5 -12 -9 -26 -9 -22 0 -24 2 -14 14 12 15 40 11 40 -5z"/>
<path d="M2580 6885 c0 -50 3 -65 14 -65 11 0 16 14 18 48 3 39 6 47 23 47 17
0 20 -8 23 -47 2 -35 7 -48 18 -48 12 0 14 12 12 56 -3 66 -23 88 -58 66 -12
-7 -20 -8 -20 -2 0 5 -7 10 -15 10 -12 0 -15 -14 -15 -65z"/>
<path d="M3130 6885 c0 -51 3 -65 15 -65 11 0 15 12 15 45 0 33 5 47 16 52 21
8 34 -14 34 -59 0 -27 4 -38 15 -38 11 0 15 12 15 50 0 43 3 50 20 50 17 0 20
-7 20 -50 0 -43 3 -50 20 -50 17 0 20 7 20 39 0 60 -15 91 -44 91 -14 0 -28
-4 -31 -10 -4 -6 -13 -5 -25 3 -16 9 -24 9 -40 -1 -12 -7 -20 -8 -20 -2 0 5
-7 10 -15 10 -12 0 -15 -14 -15 -65z"/>
<path d="M3367 6932 c-21 -23 -22 -76 -1 -96 21 -22 67 -20 87 2 22 25 21 75
-1 95 -24 22 -65 21 -85 -1z m68 -47 c0 -25 -4 -30 -25 -30 -16 0 -26 6 -28
18 -6 30 6 49 30 45 18 -2 23 -9 23 -33z"/>
<path d="M3500 6885 c0 -51 3 -65 15 -65 12 0 15 14 15 65 0 51 -3 65 -15 65
-12 0 -15 -14 -15 -65z"/>
<path d="M3800 6885 c0 -58 2 -65 20 -65 18 0 20 7 20 65 0 58 -2 65 -20 65
-18 0 -20 -7 -20 -65z"/>
<path d="M4110 6885 c0 -58 2 -65 20 -65 18 0 20 7 20 65 0 58 -2 65 -20 65
-18 0 -20 -7 -20 -65z"/>
<path d="M4197 6932 c-21 -23 -22 -76 -1 -96 20 -20 68 -21 84 -1 17 21 6 29
-20 15 -16 -9 -25 -9 -36 1 -25 20 -15 29 31 29 49 0 56 10 29 48 -19 27 -64
29 -87 4z m63 -23 c0 -5 -12 -9 -26 -9 -22 0 -24 2 -14 14 12 15 40 11 40 -5z"/>
<path d="M4330 6885 c0 -50 3 -65 14 -65 11 0 16 14 18 48 3 39 6 47 23 47 17
0 20 -8 23 -47 2 -34 7 -48 18 -48 11 0 14 14 14 60 0 55 -2 60 -25 66 -15 4
-32 1 -40 -6 -10 -9 -15 -9 -15 -1 0 6 -7 11 -15 11 -12 0 -15 -14 -15 -65z"/>
<path d="M4933 6888 c16 -46 27 -64 42 -66 17 -2 24 8 42 63 20 61 20 65 3 65
-13 0 -21 -13 -29 -45 -6 -25 -13 -45 -16 -45 -3 0 -10 20 -16 45 -8 33 -16
45 -30 45 -18 0 -17 -3 4 -62z"/>
<path d="M5074 6936 c-25 -19 -11 -32 20 -18 17 8 27 7 35 -1 9 -9 2 -14 -26
-22 -33 -9 -38 -15 -38 -40 0 -29 1 -30 53 -31 l52 -2 0 52 c0 29 -5 57 -12
64 -16 16 -60 15 -84 -2z m61 -65 c3 -6 -3 -15 -14 -21 -24 -12 -42 7 -20 21
18 11 26 11 34 0z"/>
<path d="M5456 6928 c-37 -53 3 -125 55 -98 16 9 19 7 19 -11 0 -20 -4 -21
-40 -15 -43 7 -54 -6 -21 -24 30 -16 59 -12 81 10 16 16 20 33 20 90 0 56 -3
70 -15 70 -8 0 -15 -5 -15 -10 0 -7 -6 -7 -19 0 -30 16 -48 12 -65 -12z m69
-43 c0 -23 -4 -30 -20 -30 -21 0 -31 25 -21 51 11 28 41 12 41 -21z"/>
<path d="M5614 6936 c-25 -19 -11 -32 20 -18 19 8 27 8 36 -2 8 -11 3 -16 -27
-23 -33 -8 -38 -12 -38 -38 0 -29 1 -30 53 -31 l52 -2 0 52 c0 29 -5 57 -12
64 -16 16 -60 15 -84 -2z m60 -65 c3 -5 -1 -14 -10 -21 -11 -10 -18 -10 -27
-1 -9 9 -9 14 3 21 19 12 27 12 34 1z"/>
<path d="M5740 6885 c0 -58 2 -65 20 -65 17 0 20 7 20 50 0 42 3 50 19 50 22
0 31 -19 31 -66 0 -24 5 -34 15 -34 11 0 15 13 15 53 0 57 -12 77 -45 77 -12
0 -26 -5 -33 -12 -9 -9 -12 -9 -12 0 0 7 -7 12 -15 12 -12 0 -15 -14 -15 -65z"/>
<path d="M6154 6936 c-25 -19 -11 -32 20 -18 19 8 27 8 36 -2 8 -11 3 -16 -27
-23 -33 -8 -38 -12 -38 -38 0 -29 1 -30 53 -31 l52 -2 0 52 c0 29 -5 57 -12
64 -16 16 -60 15 -84 -2z m61 -65 c3 -6 -3 -15 -14 -21 -24 -12 -42 7 -20 21
18 11 26 11 34 0z"/>
<path d="M6290 6885 c0 -50 3 -65 14 -65 11 0 16 14 18 48 3 39 6 47 23 47 17
0 20 -8 23 -47 2 -34 7 -48 18 -48 11 0 14 14 14 60 0 55 -2 60 -25 66 -15 4
-32 1 -40 -6 -10 -9 -15 -9 -15 -1 0 6 -7 11 -15 11 -12 0 -15 -14 -15 -65z"/>
<path d="M6446 6928 c-37 -53 3 -125 55 -98 16 9 19 7 19 -11 0 -20 -4 -21
-40 -15 -43 7 -54 -6 -21 -24 30 -16 59 -12 81 10 16 16 20 33 20 90 0 56 -3
70 -15 70 -8 0 -15 -5 -15 -10 0 -7 -6 -7 -19 0 -30 16 -48 12 -65 -12z m69
-43 c0 -23 -4 -30 -20 -30 -21 0 -31 25 -21 51 11 28 41 12 41 -21z"/>
<path d="M1950 6785 c0 -8 7 -15 15 -15 8 0 15 7 15 15 0 8 -7 15 -15 15 -8 0
-15 -7 -15 -15z"/>
<path d="M3392 6788 c5 -15 28 -18 29 -3 0 6 -7 12 -17 13 -10 3 -15 -1 -12
-10z"/>
<path d="M4222 6788 c6 -18 28 -21 28 -4 0 9 -7 16 -16 16 -9 0 -14 -5 -12
-12z"/>
<path d="M1880 5650 l0 -730 730 0 730 0 0 730 0 730 -730 0 -730 0 0 -730z
m1260 -5 l0 -525 -525 0 -525 0 0 525 0 525 525 0 525 0 0 -525z"/>
<path d="M2300 5645 l0 -315 313 2 312 3 3 313 2 312 -315 0 -315 0 0 -315z"/>
<path d="M3560 6275 l0 -105 100 0 100 0 0 105 0 105 -100 0 -100 0 0 -105z"/>
<path d="M3980 6170 l0 -210 105 0 105 0 0 -105 0 -105 100 0 100 0 0 210 0
210 105 0 105 0 0 105 0 105 -310 0 -310 0 0 -210z"/>
<path d="M4820 5650 l0 -730 730 0 730 0 0 730 0 730 -730 0 -730 0 0 -730z
m1250 -5 l0 -525 -525 0 -525 0 0 525 0 525 525 0 525 0 0 -525z"/>
<path d="M5232 5648 l3 -313 313 -3 312 -2 0 315 0 315 -315 0 -315 0 2 -312z"/>
<path d="M3560 5645 l0 -315 100 0 100 0 0 105 0 105 105 0 105 0 0 210 0 210
-205 0 -205 0 0 -315z"/>
<path d="M4400 5645 l0 -105 100 0 100 0 0 105 0 105 -100 0 -100 0 0 -105z"/>
<path d="M4190 5435 l0 -105 -210 0 -211 0 3 -102 3 -103 85 -2 c47 -1 93 -2
103 -3 15 0 17 -12 17 -100 l0 -100 100 0 100 0 0 99 c0 116 -10 108 133 103
l87 -3 0 -105 0 -104 -105 0 -105 0 0 -105 0 -105 -315 0 -315 0 0 -105 0
-105 -105 0 -105 0 0 -100 0 -101 151 3 151 3 18 47 c61 162 233 278 410 278
177 0 349 -116 410 -278 l18 -47 361 -3 361 -2 0 100 0 100 -210 0 -210 0 0
105 0 105 -105 0 -105 0 0 315 0 315 -105 0 -105 0 0 105 0 105 -100 0 -100 0
0 -105z"/>
<path d="M3560 5020 l0 -100 100 0 100 0 0 100 0 100 -100 0 -100 0 0 -100z"/>
<path d="M1880 4180 l0 -520 420 0 420 0 0 205 0 205 -105 0 -105 0 0 -105 0
-105 -105 0 -105 0 0 105 0 105 -105 0 -105 0 0 215 0 215 210 0 210 0 0 -105
0 -105 210 0 210 0 0 -315 0 -315 315 0 315 0 0 -105 0 -105 210 0 210 0 0
-105 0 -105 310 0 310 0 0 100 0 99 -102 3 -103 3 -3 102 -3 102 -102 3 -102
3 -3 45 -3 45 -79 -3 c-187 -9 -366 106 -430 276 -17 46 -19 47 -64 50 l-45 3
-3 -103 -3 -103 -207 -3 -207 -2 -3 94 c-4 136 -13 126 103 126 l99 0 0 100 0
100 -100 0 -100 0 -1 83 c-1 45 -1 92 -2 105 l0 22 -208 0 -209 0 0 105 0 105
-420 0 -420 0 0 -520z"/>
<path d="M3140 4600 l0 -100 100 0 100 0 0 100 0 100 -100 0 -100 0 0 -100z"/>
<path d="M5230 4600 l0 -100 105 0 105 0 0 -105 0 -105 210 0 210 0 0 205 0
205 -315 0 -315 0 0 -100z"/>
<path d="M6070 4490 l0 -210 -105 0 -105 0 0 -310 0 -310 105 0 105 0 0 210 0
210 105 0 105 0 0 310 0 310 -105 0 -105 0 0 -210z"/>
<path d="M3930 4185 l0 -85 50 0 c28 0 50 5 50 10 0 6 -18 10 -40 10 l-40 0 0
75 c0 43 -4 75 -10 75 -6 0 -10 -35 -10 -85z"/>
<path d="M4070 4185 c0 -50 4 -85 10 -85 6 0 10 18 10 40 l0 40 45 0 45 0 0
-40 c0 -22 5 -40 10 -40 6 0 10 35 10 85 0 50 -4 85 -10 85 -5 0 -10 -16 -10
-35 0 -35 0 -35 -45 -35 -45 0 -45 0 -45 35 0 19 -4 35 -10 35 -6 0 -10 -35
-10 -85z"/>
<path d="M4820 3970 l0 -100 100 0 100 0 0 100 0 100 -100 0 -100 0 0 -100z"/>
<path d="M5230 3970 l0 -100 210 0 210 0 0 100 0 100 -210 0 -210 0 0 -100z"/>
<path d="M4400 3760 l0 -100 100 0 100 0 0 100 0 100 -100 0 -100 0 0 -100z"/>
<path d="M4820 3550 l0 -100 99 0 c96 0 100 -1 103 -22 2 -13 2 -107 0 -210
l-3 -188 -309 0 -310 0 0 -105 0 -105 208 -2 207 -3 3 -207 2 -208 100 0 100
0 0 210 0 210 420 0 420 0 0 -105 0 -105 -210 0 -210 0 0 -105 0 -105 210 0
210 0 0 105 0 105 105 0 105 0 0 105 0 105 105 0 105 0 0 210 0 210 -210 0
-210 0 0 100 0 100 -105 0 -105 0 0 -100 0 -100 -90 -1 c-49 -1 -96 -2 -102
-3 -9 -1 -14 -31 -16 -103 l-3 -103 -104 0 -105 0 0 105 0 105 105 0 105 0 0
205 0 205 -310 0 -310 0 0 -100z"/>
<path d="M1880 2710 l0 -730 730 0 730 0 0 730 0 730 -730 0 -730 0 0 -730z
m1260 5 l0 -525 -525 0 -525 0 0 525 0 525 525 0 525 0 0 -525z"/>
<path d="M2300 2715 l0 -315 315 0 315 0 -2 313 -3 312 -312 3 -313 2 0 -315z"/>
<path d="M3770 3134 l0 -104 100 0 100 0 0 105 0 106 -100 -2 -100 -1 0 -104z"/>
<path d="M3980 2925 l0 -105 100 0 100 0 0 105 0 105 -100 0 -100 0 0 -105z"/>
<path d="M3560 2400 l0 -420 100 0 100 0 0 315 0 315 105 0 105 0 0 105 0 105
-205 0 -205 0 0 -420z"/>
<path d="M4190 2715 l0 -105 100 0 100 0 0 105 0 105 -100 0 -100 0 0 -105z"/>
<path d="M3980 2505 l0 -105 100 0 100 0 0 105 0 105 -100 0 -100 0 0 -105z"/>
<path d="M4400 2505 l0 -105 100 0 100 0 0 105 0 105 -100 0 -100 0 0 -105z"/>
<path d="M4610 2190 l0 -210 100 0 100 0 0 210 0 210 -100 0 -100 0 0 -210z"/>
<path d="M5026 2383 c-4 -9 -6 -104 -5 -210 l2 -193 418 0 419 0 0 105 0 105
-315 0 -315 0 0 105 0 105 -99 0 c-84 0 -100 -3 -105 -17z"/>
<path d="M6070 2295 l0 -105 105 0 105 0 0 105 0 105 -105 0 -105 0 0 -105z"/>
<path d="M3980 2085 l0 -105 100 0 100 0 0 105 0 105 -100 0 -100 0 0 -105z"/>
<path d="M1341 1434 c-29 -24 -31 -30 -31 -96 0 -66 1 -69 23 -66 20 3 22 10
25 63 3 55 15 80 34 69 4 -3 8 -34 8 -70 0 -57 2 -64 20 -64 11 0 20 6 21 13
1 6 2 32 3 57 2 56 12 76 32 59 9 -7 14 -32 14 -70 0 -52 2 -59 20 -59 18 0
20 7 20 73 0 88 -15 109 -76 106 -22 -1 -49 1 -60 5 -16 5 -31 -1 -53 -20z"/>
<path d="M1623 1445 c-71 -30 -73 -124 -3 -160 42 -22 58 -19 96 19 39 39 43
71 14 109 -28 36 -69 48 -107 32z m59 -52 c26 -23 22 -51 -7 -65 -22 -10 -29
-9 -47 10 -20 20 -20 22 -4 46 19 30 32 32 58 9z"/>
<path d="M3966 1410 c-64 -20 -116 -95 -116 -167 0 -60 8 -65 68 -46 l52 17 0
43 0 44 53 -3 52 -3 3 -42 c3 -40 5 -42 49 -57 28 -10 51 -12 56 -7 15 15 10
97 -9 136 -32 69 -131 109 -208 85z"/>
<path d="M6068 1390 c-4 -27 -2 -30 21 -28 18 2 26 -2 29 -15 3 -17 0 -18 -29
-12 -30 7 -32 6 -20 -9 18 -22 58 -20 71 3 18 34 -3 59 -43 52 -5 -1 -7 4 -4
11 2 7 11 12 20 10 8 -1 18 2 22 8 4 6 -7 10 -28 10 -31 0 -35 -3 -39 -30z"/>
<path d="M6170 1394 c-19 -50 29 -104 65 -74 18 15 20 71 3 88 -22 22 -58 14
-68 -14z m55 -25 c0 -24 -5 -35 -17 -37 -14 -3 -18 4 -18 31 0 18 3 37 7 41
15 14 28 -2 28 -35z"/>
<path d="M2391 1396 c-9 -11 -8 -23 4 -51 15 -37 15 -38 61 -31 26 3 53 6 60
6 10 0 14 14 14 45 l0 45 -64 0 c-43 0 -67 -5 -75 -14z"/>
<path d="M6310 1385 c0 -8 -7 -15 -15 -15 -8 0 -15 -4 -15 -10 0 -5 6 -10 14
-10 8 0 17 -10 19 -22 l4 -23 8 23 c4 12 14 22 21 22 8 0 14 5 14 10 0 6 -7
10 -15 10 -8 0 -15 7 -15 15 0 8 -4 15 -10 15 -5 0 -10 -7 -10 -15z"/>
<path d="M2607 1295 c-16 -35 -42 -76 -58 -91 l-29 -28 -57 59 c-31 33 -53 55
-49 48 3 -6 -4 -21 -16 -32 -12 -12 -18 -21 -13 -21 5 0 0 -6 -10 -14 -18 -13
-17 -15 14 -55 43 -54 79 -81 107 -81 37 0 91 84 128 197 26 79 15 89 -17 18z"/>
<path d="M3392 1307 c-29 -29 -52 -57 -52 -63 0 -13 93 -104 106 -104 6 0 20
11 33 23 20 22 20 25 6 37 -36 29 -38 50 -11 79 l26 27 -28 27 -28 27 -52 -53z"/>
<path d="M3537 1332 l-27 -28 27 -27 27 -27 -29 -30 -29 -30 27 -28 27 -27 57
58 58 57 -55 55 -56 56 -27 -29z"/>
<path d="M2880 1299 c0 -5 5 -7 10 -4 6 3 10 8 10 11 0 2 -4 4 -10 4 -5 0 -10
-5 -10 -11z"/>
<path d="M4912 1250 c-12 -35 -17 -62 -11 -65 5 -4 12 1 15 9 8 21 51 20 62 0
6 -10 12 -13 16 -6 8 14 -34 122 -48 122 -7 0 -22 -27 -34 -60z m48 -7 c0 -7
-7 -13 -15 -13 -16 0 -19 9 -9 35 5 13 8 14 15 3 5 -7 9 -19 9 -25z"/>
<path d="M5027 1292 c-33 -36 -16 -92 33 -107 23 -7 63 12 55 26 -4 5 -13 5
-23 0 -36 -18 -71 23 -52 59 11 21 44 27 55 10 4 -6 11 -8 16 -4 17 10 -11 34
-41 34 -15 0 -34 -8 -43 -18z"/>
<path d="M5135 1298 c-2 -7 -3 -35 -2 -63 l2 -50 39 2 c46 2 62 15 51 40 -5
10 -9 32 -9 48 -1 27 -4 30 -39 33 -24 2 -39 -1 -42 -10z m65 -23 c0 -8 -9
-15 -20 -15 -11 0 -20 7 -20 15 0 8 9 15 20 15 11 0 20 -7 20 -15z m-2 -52
c-4 -24 -38 -26 -38 -2 0 13 7 19 21 19 14 0 19 -5 17 -17z"/>
<path d="M2980 1243 c1 -45 2 -47 14 -24 12 21 14 21 20 6 6 -17 7 -17 21 1
13 17 14 17 15 2 0 -9 5 -20 10 -23 6 -4 10 12 10 39 0 51 -19 63 -37 24 l-10
-23 -12 23 c-19 35 -31 26 -31 -25z"/>
<path d="M3090 1245 c0 -41 2 -45 24 -45 32 0 45 19 39 58 -5 28 -9 32 -34 32
-28 0 -29 -2 -29 -45z m40 25 c0 -5 -4 -10 -10 -10 -5 0 -10 5 -10 10 0 6 5
10 10 10 6 0 10 -4 10 -10z m10 -40 c0 -5 -7 -10 -15 -10 -8 0 -15 5 -15 10 0
6 7 10 15 10 8 0 15 -4 15 -10z"/>
<path d="M2858 1273 c7 -3 16 -2 19 1 4 3 -2 6 -13 5 -11 0 -14 -3 -6 -6z"/>
<path d="M4370 1235 c0 -45 1 -46 28 -43 24 3 27 7 27 43 0 36 -3 40 -27 43
-27 3 -28 2 -28 -43z m46 -2 c3 -27 0 -33 -16 -33 -16 0 -20 7 -20 36 0 47 31
45 36 -3z"/>
<path d="M4443 1235 c0 -27 2 -38 4 -22 2 15 2 37 0 50 -2 12 -4 0 -4 -28z"/>
<path d="M4470 1235 c0 -38 3 -45 19 -45 11 0 27 7 35 16 31 31 13 74 -31 74
-21 0 -23 -5 -23 -45z m54 19 c8 -20 -11 -54 -29 -54 -10 0 -15 11 -15 35 0
28 4 35 19 35 10 0 22 -7 25 -16z"/>
<path d="M4540 1276 c0 -13 33 -86 39 -86 3 0 13 20 22 45 9 25 13 45 9 45 -5
0 -11 -13 -15 -30 -9 -42 -24 -47 -31 -10 -6 25 -24 54 -24 36z"/>
<path d="M5323 1264 c-4 -10 1 -20 13 -27 18 -10 17 -11 -6 -18 -21 -5 -23 -7
-7 -14 9 -4 25 -4 35 1 9 4 29 7 45 6 17 0 27 5 27 14 0 17 -5 17 -30 4 -13
-7 -19 -6 -24 5 -3 8 -12 15 -21 15 -8 0 -15 4 -15 9 0 5 10 7 22 3 14 -3 19
-2 14 6 -11 18 -46 14 -53 -4z"/>
<path d="M5646 1248 c-8 -31 -7 -38 2 -38 4 0 9 14 10 30 3 35 -3 39 -12 8z"/>
<path d="M5817 1250 c-10 -35 -9 -36 13 -37 11 -1 20 4 20 13 0 8 -4 14 -9 14
-5 0 -11 8 -13 18 -3 13 -5 11 -11 -8z"/>
<path d="M2925 1250 c3 -5 8 -10 11 -10 2 0 4 5 4 10 0 6 -5 10 -11 10 -5 0
-7 -4 -4 -10z"/>
<path d="M2835 1239 c-4 -6 -5 -12 -2 -15 2 -3 7 2 10 11 7 17 1 20 -8 4z"/>
<path d="M5446 1231 c-4 -7 -5 -15 -2 -18 9 -9 19 4 14 18 -4 11 -6 11 -12 0z"/>
<path d="M5500 1225 c0 -8 4 -15 8 -15 5 0 9 7 9 15 0 8 -4 15 -9 15 -4 0 -8
-7 -8 -15z"/>
<path d="M5531 1224 c0 -11 3 -14 6 -6 3 7 2 16 -1 19 -3 4 -6 -2 -5 -13z"/>
<path d="M5556 1225 c-3 -8 -1 -15 4 -15 6 0 10 5 10 10 0 6 5 10 11 10 5 0 7
-4 4 -10 -3 -5 -1 -10 4 -10 6 0 11 5 11 10 0 6 5 10 11 10 5 0 7 -4 4 -10 -3
-5 -1 -10 4 -10 6 0 11 7 11 15 0 10 -10 15 -34 15 -21 0 -36 -6 -40 -15z"/>
<path d="M5670 1227 c0 -8 14 -13 35 -14 24 0 35 4 35 13 0 17 -5 17 -31 4
-13 -7 -19 -7 -19 0 0 5 -4 10 -10 10 -5 0 -10 -6 -10 -13z"/>
<path d="M5755 1229 c-4 -6 -4 -13 0 -17 3 -3 10 0 15 8 7 10 10 11 10 3 0 -7
5 -13 10 -13 6 0 10 7 10 15 0 17 -35 20 -45 4z"/>
<path d="M1333 1204 c-21 -21 -24 -32 -21 -92 3 -59 5 -67 23 -67 17 0 21 8
25 65 4 49 9 65 20 65 12 0 16 -16 18 -68 3 -64 4 -68 25 -65 19 3 22 10 25
63 5 105 42 99 42 -7 0 -51 2 -58 20 -58 18 0 20 7 20 73 0 96 -13 109 -107
112 -58 3 -69 0 -90 -21z"/>
<path d="M1620 1217 c-14 -7 -33 -27 -42 -46 -22 -44 -6 -89 41 -113 40 -20
81 -9 111 29 27 35 25 67 -7 102 -33 36 -69 46 -103 28z m74 -59 c12 -20 1
-44 -28 -62 -14 -9 -21 -6 -36 12 -19 23 -17 50 4 65 17 11 48 4 60 -15z"/>
<path d="M2860 1221 c0 -6 4 -13 10 -16 6 -3 7 1 4 9 -7 18 -14 21 -14 7z"/>
<path d="M3963 1179 c-23 -4 -52 -13 -63 -19 -21 -11 -21 -12 -3 -32 43 -47
139 -66 194 -38 28 14 69 50 69 60 0 21 -134 40 -197 29z"/>
<path d="M6266 1181 c-3 -5 5 -8 19 -8 14 0 22 3 19 8 -3 5 -11 9 -19 9 -8 0
-16 -4 -19 -9z"/>
<path d="M6483 1130 c0 -36 2 -51 4 -33 4 32 28 61 40 50 3 -4 9 -24 13 -44
l8 -38 1 35 c1 46 -11 64 -37 56 -16 -5 -21 -2 -25 16 -2 13 -4 -6 -4 -42z"/>
<path d="M6590 1180 c0 -5 5 -10 11 -10 5 0 7 5 4 10 -3 6 -8 10 -11 10 -2 0
-4 -4 -4 -10z"/>
<path d="M6060 1113 c0 -53 18 -57 22 -5 4 52 31 50 39 -3 l6 -40 1 35 c2 46
-7 59 -41 57 -25 -2 -27 -5 -27 -44z"/>
<path d="M6159 1138 c-18 -33 4 -72 36 -64 20 5 23 3 18 -10 -4 -10 -14 -14
-29 -11 -13 2 -21 0 -18 -4 8 -13 38 -11 52 3 7 7 12 32 12 58 0 43 -1 45 -30
47 -21 2 -33 -4 -41 -19z m50 -7 c7 -13 6 -23 -3 -36 -16 -22 -36 -12 -36 19
0 39 22 49 39 17z"/>
<path d="M6266 1151 c-3 -5 2 -8 11 -7 25 2 27 -22 1 -26 -15 -2 -23 -10 -23
-23 0 -16 7 -20 33 -22 28 -1 32 2 32 24 0 46 -36 83 -54 54z m34 -50 c0 -14
-18 -23 -30 -16 -6 4 -8 11 -5 16 8 12 35 12 35 0z"/>
<path d="M6341 1110 c2 -34 3 -38 6 -15 10 64 51 65 54 1 2 -29 2 -29 6 -4 6
39 -13 68 -42 66 -23 -2 -25 -6 -24 -48z"/>
<path d="M6586 1151 c-3 -5 2 -8 11 -7 25 2 27 -22 1 -26 -15 -2 -23 -10 -23
-23 0 -16 7 -20 33 -22 28 -1 32 2 32 24 0 46 -36 83 -54 54z m34 -50 c0 -14
-18 -23 -30 -16 -6 4 -8 11 -5 16 8 12 35 12 35 0z"/>
<path d="M6660 1113 c0 -49 16 -60 18 -12 2 65 37 63 45 -1 3 -27 4 -25 3 10
-1 44 -2 45 -33 45 -32 1 -33 0 -33 -42z"/>
<path d="M6759 1138 c-18 -33 4 -72 36 -64 20 5 23 3 18 -10 -4 -10 -14 -14
-29 -11 -13 2 -21 0 -18 -4 8 -13 38 -11 52 3 7 7 12 32 12 58 0 43 -1 45 -30
47 -21 2 -33 -4 -41 -19z m46 -24 c0 -19 -5 -29 -15 -29 -16 0 -25 28 -16 51
10 25 31 10 31 -22z"/>
<path d="M3990 7450 c0 -5 9 -10 20 -10 11 0 20 5 20 10 0 6 -9 10 -20 10 -11
0 -20 -4 -20 -10z"/>
<path d="M4380 7450 c0 -5 6 -10 14 -10 8 0 18 5 21 10 3 6 -3 10 -14 10 -12
0 -21 -4 -21 -10z"/>
<path d="M4681 7491 c-7 -13 -6 -23 4 -37 15 -19 15 -19 30 0 15 19 5 56 -15
56 -5 0 -14 -8 -19 -19z"/>
<path d="M0 8010 c0 -16 5 -30 10 -30 6 0 10 14 10 30 0 17 -4 30 -10 30 -5 0
-10 -13 -10 -30z"/>
<path d="M8260 7945 c0 -14 5 -25 10 -25 6 0 10 11 10 25 0 14 -4 25 -10 25
-5 0 -10 -11 -10 -25z"/>
<path d="M0 7890 c0 -16 5 -30 10 -30 6 0 10 14 10 30 0 17 -4 30 -10 30 -5 0
-10 -13 -10 -30z"/>
<path d="M8260 7825 c0 -14 5 -25 10 -25 6 0 10 11 10 25 0 14 -4 25 -10 25
-5 0 -10 -11 -10 -25z"/>
<path d="M0 7770 c0 -16 5 -30 10 -30 6 0 10 14 10 30 0 17 -4 30 -10 30 -5 0
-10 -13 -10 -30z"/>
<path d="M8260 7705 c0 -14 5 -25 10 -25 6 0 10 11 10 25 0 14 -4 25 -10 25
-5 0 -10 -11 -10 -25z"/>
<path d="M0 7650 c0 -16 5 -30 10 -30 6 0 10 14 10 30 0 17 -4 30 -10 30 -5 0
-10 -13 -10 -30z"/>
<path d="M8260 7585 c0 -14 5 -25 10 -25 6 0 10 11 10 25 0 14 -4 25 -10 25
-5 0 -10 -11 -10 -25z"/>
<path d="M0 7530 c0 -16 5 -30 10 -30 6 0 10 14 10 30 0 17 -4 30 -10 30 -5 0
-10 -13 -10 -30z"/>
<path d="M8260 7465 c0 -14 5 -25 10 -25 6 0 10 11 10 25 0 14 -4 25 -10 25
-5 0 -10 -11 -10 -25z"/>
<path d="M0 7410 c0 -16 5 -30 10 -30 6 0 10 14 10 30 0 17 -4 30 -10 30 -5 0
-10 -13 -10 -30z"/>
<path d="M8260 7345 c0 -14 5 -25 10 -25 6 0 10 11 10 25 0 14 -4 25 -10 25
-5 0 -10 -11 -10 -25z"/>
<path d="M0 7290 c0 -16 5 -30 10 -30 6 0 10 14 10 30 0 17 -4 30 -10 30 -5 0
-10 -13 -10 -30z"/>
<path d="M8260 7225 c0 -14 5 -25 10 -25 6 0 10 11 10 25 0 14 -4 25 -10 25
-5 0 -10 -11 -10 -25z"/>
<path d="M0 7170 c0 -16 5 -30 10 -30 6 0 10 14 10 30 0 17 -4 30 -10 30 -5 0
-10 -13 -10 -30z"/>
<path d="M8260 7105 c0 -14 5 -25 10 -25 6 0 10 11 10 25 0 14 -4 25 -10 25
-5 0 -10 -11 -10 -25z"/>
<path d="M0 7050 c0 -16 5 -30 10 -30 6 0 10 14 10 30 0 17 -4 30 -10 30 -5 0
-10 -13 -10 -30z"/>
<path d="M8260 6985 c0 -14 5 -25 10 -25 6 0 10 11 10 25 0 14 -4 25 -10 25
-5 0 -10 -11 -10 -25z"/>
<path d="M0 6930 c0 -16 5 -30 10 -30 6 0 10 14 10 30 0 17 -4 30 -10 30 -5 0
-10 -13 -10 -30z"/>
<path d="M8260 6865 c0 -14 5 -25 10 -25 6 0 10 11 10 25 0 14 -4 25 -10 25
-5 0 -10 -11 -10 -25z"/>
<path d="M0 6810 c0 -16 5 -30 10 -30 6 0 10 14 10 30 0 17 -4 30 -10 30 -5 0
-10 -13 -10 -30z"/>
<path d="M8260 6745 c0 -14 5 -25 10 -25 6 0 10 11 10 25 0 14 -4 25 -10 25
-5 0 -10 -11 -10 -25z"/>
<path d="M0 6690 c0 -16 5 -30 10 -30 6 0 10 14 10 30 0 17 -4 30 -10 30 -5 0
-10 -13 -10 -30z"/>
<path d="M8260 6625 c0 -14 5 -25 10 -25 6 0 10 11 10 25 0 14 -4 25 -10 25
-5 0 -10 -11 -10 -25z"/>
<path d="M0 6570 c0 -16 5 -30 10 -30 6 0 10 14 10 30 0 17 -4 30 -10 30 -5 0
-10 -13 -10 -30z"/>
<path d="M8260 6505 c0 -14 5 -25 10 -25 6 0 10 11 10 25 0 14 -4 25 -10 25
-5 0 -10 -11 -10 -25z"/>
<path d="M0 6450 c0 -16 5 -30 10 -30 6 0 10 14 10 30 0 17 -4 30 -10 30 -5 0
-10 -13 -10 -30z"/>
<path d="M8260 6385 c0 -14 5 -25 10 -25 6 0 10 11 10 25 0 14 -4 25 -10 25
-5 0 -10 -11 -10 -25z"/>
<path d="M0 6330 c0 -16 5 -30 10 -30 6 0 10 14 10 30 0 17 -4 30 -10 30 -5 0
-10 -13 -10 -30z"/>
<path d="M8260 6265 c0 -14 5 -25 10 -25 6 0 10 11 10 25 0 14 -4 25 -10 25
-5 0 -10 -11 -10 -25z"/>
<path d="M0 6210 c0 -16 5 -30 10 -30 6 0 10 14 10 30 0 17 -4 30 -10 30 -5 0
-10 -13 -10 -30z"/>
<path d="M8260 6145 c0 -14 5 -25 10 -25 6 0 10 11 10 25 0 14 -4 25 -10 25
-5 0 -10 -11 -10 -25z"/>
<path d="M0 6090 c0 -16 5 -30 10 -30 6 0 10 14 10 30 0 17 -4 30 -10 30 -5 0
-10 -13 -10 -30z"/>
<path d="M8260 6025 c0 -14 5 -25 10 -25 6 0 10 11 10 25 0 14 -4 25 -10 25
-5 0 -10 -11 -10 -25z"/>
<path d="M0 5970 c0 -16 5 -30 10 -30 6 0 10 14 10 30 0 17 -4 30 -10 30 -5 0
-10 -13 -10 -30z"/>
<path d="M8260 5905 c0 -14 5 -25 10 -25 6 0 10 11 10 25 0 14 -4 25 -10 25
-5 0 -10 -11 -10 -25z"/>
<path d="M0 5850 c0 -16 5 -30 10 -30 6 0 10 14 10 30 0 17 -4 30 -10 30 -5 0
-10 -13 -10 -30z"/>
<path d="M8260 5785 c0 -14 5 -25 10 -25 6 0 10 11 10 25 0 14 -4 25 -10 25
-5 0 -10 -11 -10 -25z"/>
<path d="M0 5730 c0 -16 5 -30 10 -30 6 0 10 14 10 30 0 17 -4 30 -10 30 -5 0
-10 -13 -10 -30z"/>
<path d="M8260 5665 c0 -14 5 -25 10 -25 6 0 10 11 10 25 0 14 -4 25 -10 25
-5 0 -10 -11 -10 -25z"/>
<path d="M0 5610 c0 -16 5 -30 10 -30 6 0 10 14 10 30 0 17 -4 30 -10 30 -5 0
-10 -13 -10 -30z"/>
<path d="M8260 5545 c0 -14 5 -25 10 -25 6 0 10 11 10 25 0 14 -4 25 -10 25
-5 0 -10 -11 -10 -25z"/>
<path d="M0 5490 c0 -16 5 -30 10 -30 6 0 10 14 10 30 0 17 -4 30 -10 30 -5 0
-10 -13 -10 -30z"/>
<path d="M8260 5425 c0 -14 5 -25 10 -25 6 0 10 11 10 25 0 14 -4 25 -10 25
-5 0 -10 -11 -10 -25z"/>
<path d="M0 5370 c0 -16 5 -30 10 -30 6 0 10 14 10 30 0 17 -4 30 -10 30 -5 0
-10 -13 -10 -30z"/>
<path d="M8260 5305 c0 -14 5 -25 10 -25 6 0 10 11 10 25 0 14 -4 25 -10 25
-5 0 -10 -11 -10 -25z"/>
<path d="M0 5250 c0 -16 5 -30 10 -30 6 0 10 14 10 30 0 17 -4 30 -10 30 -5 0
-10 -13 -10 -30z"/>
<path d="M8260 5185 c0 -14 5 -25 10 -25 6 0 10 11 10 25 0 14 -4 25 -10 25
-5 0 -10 -11 -10 -25z"/>
<path d="M0 5130 c0 -16 5 -30 10 -30 6 0 10 14 10 30 0 17 -4 30 -10 30 -5 0
-10 -13 -10 -30z"/>
<path d="M8260 5065 c0 -14 5 -25 10 -25 6 0 10 11 10 25 0 14 -4 25 -10 25
-5 0 -10 -11 -10 -25z"/>
<path d="M0 5010 c0 -16 5 -30 10 -30 6 0 10 14 10 30 0 17 -4 30 -10 30 -5 0
-10 -13 -10 -30z"/>
<path d="M8260 4945 c0 -14 5 -25 10 -25 6 0 10 11 10 25 0 14 -4 25 -10 25
-5 0 -10 -11 -10 -25z"/>
<path d="M0 4890 c0 -16 5 -30 10 -30 6 0 10 14 10 30 0 17 -4 30 -10 30 -5 0
-10 -13 -10 -30z"/>
<path d="M8260 4825 c0 -14 5 -25 10 -25 6 0 10 11 10 25 0 14 -4 25 -10 25
-5 0 -10 -11 -10 -25z"/>
<path d="M0 4770 c0 -16 5 -30 10 -30 6 0 10 14 10 30 0 17 -4 30 -10 30 -5 0
-10 -13 -10 -30z"/>
<path d="M8260 4705 c0 -14 5 -25 10 -25 6 0 10 11 10 25 0 14 -4 25 -10 25
-5 0 -10 -11 -10 -25z"/>
<path d="M0 4650 c0 -16 5 -30 10 -30 6 0 10 14 10 30 0 17 -4 30 -10 30 -5 0
-10 -13 -10 -30z"/>
<path d="M8260 4585 c0 -14 5 -25 10 -25 6 0 10 11 10 25 0 14 -4 25 -10 25
-5 0 -10 -11 -10 -25z"/>
<path d="M0 4530 c0 -16 5 -30 10 -30 6 0 10 14 10 30 0 17 -4 30 -10 30 -5 0
-10 -13 -10 -30z"/>
<path d="M8260 4465 c0 -14 5 -25 10 -25 6 0 10 11 10 25 0 14 -4 25 -10 25
-5 0 -10 -11 -10 -25z"/>
<path d="M0 4410 c0 -16 5 -30 10 -30 6 0 10 14 10 30 0 17 -4 30 -10 30 -5 0
-10 -13 -10 -30z"/>
<path d="M8260 4345 c0 -14 5 -25 10 -25 6 0 10 11 10 25 0 14 -4 25 -10 25
-5 0 -10 -11 -10 -25z"/>
<path d="M0 4290 c0 -16 5 -30 10 -30 6 0 10 14 10 30 0 17 -4 30 -10 30 -5 0
-10 -13 -10 -30z"/>
<path d="M8260 4225 c0 -14 5 -25 10 -25 6 0 10 11 10 25 0 14 -4 25 -10 25
-5 0 -10 -11 -10 -25z"/>
<path d="M0 4170 c0 -16 5 -30 10 -30 6 0 10 14 10 30 0 17 -4 30 -10 30 -5 0
-10 -13 -10 -30z"/>
<path d="M8260 4105 c0 -14 5 -25 10 -25 6 0 10 11 10 25 0 14 -4 25 -10 25
-5 0 -10 -11 -10 -25z"/>
<path d="M0 4050 c0 -16 5 -30 10 -30 6 0 10 14 10 30 0 17 -4 30 -10 30 -5 0
-10 -13 -10 -30z"/>
<path d="M8260 3985 c0 -14 5 -25 10 -25 6 0 10 11 10 25 0 14 -4 25 -10 25
-5 0 -10 -11 -10 -25z"/>
<path d="M0 3930 c0 -16 5 -30 10 -30 6 0 10 14 10 30 0 17 -4 30 -10 30 -5 0
-10 -13 -10 -30z"/>
<path d="M8260 3865 c0 -14 5 -25 10 -25 6 0 10 11 10 25 0 14 -4 25 -10 25
-5 0 -10 -11 -10 -25z"/>
<path d="M0 3810 c0 -16 5 -30 10 -30 6 0 10 14 10 30 0 17 -4 30 -10 30 -5 0
-10 -13 -10 -30z"/>
<path d="M8260 3745 c0 -14 5 -25 10 -25 6 0 10 11 10 25 0 14 -4 25 -10 25
-5 0 -10 -11 -10 -25z"/>
<path d="M0 3690 c0 -16 5 -30 10 -30 6 0 10 14 10 30 0 17 -4 30 -10 30 -5 0
-10 -13 -10 -30z"/>
<path d="M8260 3625 c0 -14 5 -25 10 -25 6 0 10 11 10 25 0 14 -4 25 -10 25
-5 0 -10 -11 -10 -25z"/>
<path d="M0 3570 c0 -16 5 -30 10 -30 6 0 10 14 10 30 0 17 -4 30 -10 30 -5 0
-10 -13 -10 -30z"/>
<path d="M8260 3505 c0 -14 5 -25 10 -25 6 0 10 11 10 25 0 14 -4 25 -10 25
-5 0 -10 -11 -10 -25z"/>
<path d="M0 3450 c0 -16 5 -30 10 -30 6 0 10 14 10 30 0 17 -4 30 -10 30 -5 0
-10 -13 -10 -30z"/>
<path d="M8260 3385 c0 -14 5 -25 10 -25 6 0 10 11 10 25 0 14 -4 25 -10 25
-5 0 -10 -11 -10 -25z"/>
<path d="M0 3330 c0 -16 5 -30 10 -30 6 0 10 14 10 30 0 17 -4 30 -10 30 -5 0
-10 -13 -10 -30z"/>
<path d="M8260 3265 c0 -14 5 -25 10 -25 6 0 10 11 10 25 0 14 -4 25 -10 25
-5 0 -10 -11 -10 -25z"/>
<path d="M0 3210 c0 -16 5 -30 10 -30 6 0 10 14 10 30 0 17 -4 30 -10 30 -5 0
-10 -13 -10 -30z"/>
<path d="M8260 3145 c0 -14 5 -25 10 -25 6 0 10 11 10 25 0 14 -4 25 -10 25
-5 0 -10 -11 -10 -25z"/>
<path d="M0 3090 c0 -16 5 -30 10 -30 6 0 10 14 10 30 0 17 -4 30 -10 30 -5 0
-10 -13 -10 -30z"/>
<path d="M8260 3025 c0 -14 5 -25 10 -25 6 0 10 11 10 25 0 14 -4 25 -10 25
-5 0 -10 -11 -10 -25z"/>
<path d="M0 2970 c0 -16 5 -30 10 -30 6 0 10 14 10 30 0 17 -4 30 -10 30 -5 0
-10 -13 -10 -30z"/>
<path d="M8260 2905 c0 -14 5 -25 10 -25 6 0 10 11 10 25 0 14 -4 25 -10 25
-5 0 -10 -11 -10 -25z"/>
<path d="M0 2850 c0 -16 5 -30 10 -30 6 0 10 14 10 30 0 17 -4 30 -10 30 -5 0
-10 -13 -10 -30z"/>
<path d="M8260 2785 c0 -14 5 -25 10 -25 6 0 10 11 10 25 0 14 -4 25 -10 25
-5 0 -10 -11 -10 -25z"/>
<path d="M0 2730 c0 -16 5 -30 10 -30 6 0 10 14 10 30 0 17 -4 30 -10 30 -5 0
-10 -13 -10 -30z"/>
<path d="M8260 2665 c0 -14 5 -25 10 -25 6 0 10 11 10 25 0 14 -4 25 -10 25
-5 0 -10 -11 -10 -25z"/>
<path d="M0 2610 c0 -16 5 -30 10 -30 6 0 10 14 10 30 0 17 -4 30 -10 30 -5 0
-10 -13 -10 -30z"/>
<path d="M8260 2545 c0 -14 5 -25 10 -25 6 0 10 11 10 25 0 14 -4 25 -10 25
-5 0 -10 -11 -10 -25z"/>
<path d="M0 2490 c0 -16 5 -30 10 -30 6 0 10 14 10 30 0 17 -4 30 -10 30 -5 0
-10 -13 -10 -30z"/>
<path d="M8260 2425 c0 -14 5 -25 10 -25 6 0 10 11 10 25 0 14 -4 25 -10 25
-5 0 -10 -11 -10 -25z"/>
<path d="M0 2370 c0 -16 5 -30 10 -30 6 0 10 14 10 30 0 17 -4 30 -10 30 -5 0
-10 -13 -10 -30z"/>
<path d="M8260 2305 c0 -14 5 -25 10 -25 6 0 10 11 10 25 0 14 -4 25 -10 25
-5 0 -10 -11 -10 -25z"/>
<path d="M0 2250 c0 -16 5 -30 10 -30 6 0 10 14 10 30 0 17 -4 30 -10 30 -5 0
-10 -13 -10 -30z"/>
<path d="M8260 2185 c0 -14 5 -25 10 -25 6 0 10 11 10 25 0 14 -4 25 -10 25
-5 0 -10 -11 -10 -25z"/>
<path d="M0 2130 c0 -16 5 -30 10 -30 6 0 10 14 10 30 0 17 -4 30 -10 30 -5 0
-10 -13 -10 -30z"/>
<path d="M8260 2065 c0 -14 5 -25 10 -25 6 0 10 11 10 25 0 14 -4 25 -10 25
-5 0 -10 -11 -10 -25z"/>
<path d="M0 2010 c0 -16 5 -30 10 -30 6 0 10 14 10 30 0 17 -4 30 -10 30 -5 0
-10 -13 -10 -30z"/>
<path d="M8260 1945 c0 -14 5 -25 10 -25 6 0 10 11 10 25 0 14 -4 25 -10 25
-5 0 -10 -11 -10 -25z"/>
<path d="M0 1890 c0 -16 5 -30 10 -30 6 0 10 14 10 30 0 17 -4 30 -10 30 -5 0
-10 -13 -10 -30z"/>
<path d="M8260 1825 c0 -14 5 -25 10 -25 6 0 10 11 10 25 0 14 -4 25 -10 25
-5 0 -10 -11 -10 -25z"/>
<path d="M0 1770 c0 -16 5 -30 10 -30 6 0 10 14 10 30 0 17 -4 30 -10 30 -5 0
-10 -13 -10 -30z"/>
<path d="M8260 1705 c0 -14 5 -25 10 -25 6 0 10 11 10 25 0 14 -4 25 -10 25
-5 0 -10 -11 -10 -25z"/>
<path d="M0 1650 c0 -16 5 -30 10 -30 6 0 10 14 10 30 0 17 -4 30 -10 30 -5 0
-10 -13 -10 -30z"/>
<path d="M8260 1585 c0 -14 5 -25 10 -25 6 0 10 11 10 25 0 14 -4 25 -10 25
-5 0 -10 -11 -10 -25z"/>
<path d="M0 1530 c0 -16 5 -30 10 -30 6 0 10 14 10 30 0 17 -4 30 -10 30 -5 0
-10 -13 -10 -30z"/>
<path d="M8260 1465 c0 -14 5 -25 10 -25 6 0 10 11 10 25 0 14 -4 25 -10 25
-5 0 -10 -11 -10 -25z"/>
<path d="M0 1410 c0 -16 5 -30 10 -30 6 0 10 14 10 30 0 17 -4 30 -10 30 -5 0
-10 -13 -10 -30z"/>
<path d="M8260 1345 c0 -14 5 -25 10 -25 6 0 10 11 10 25 0 14 -4 25 -10 25
-5 0 -10 -11 -10 -25z"/>
<path d="M0 1290 c0 -16 5 -30 10 -30 6 0 10 14 10 30 0 17 -4 30 -10 30 -5 0
-10 -13 -10 -30z"/>
<path d="M8260 1225 c0 -14 5 -25 10 -25 6 0 10 11 10 25 0 14 -4 25 -10 25
-5 0 -10 -11 -10 -25z"/>
<path d="M0 1170 c0 -16 5 -30 10 -30 6 0 10 14 10 30 0 17 -4 30 -10 30 -5 0
-10 -13 -10 -30z"/>
<path d="M8260 1105 c0 -14 5 -25 10 -25 6 0 10 11 10 25 0 14 -4 25 -10 25
-5 0 -10 -11 -10 -25z"/>
<path d="M0 1050 c0 -16 5 -30 10 -30 6 0 10 14 10 30 0 17 -4 30 -10 30 -5 0
-10 -13 -10 -30z"/>
<path d="M8260 985 c0 -14 5 -25 10 -25 6 0 10 11 10 25 0 14 -4 25 -10 25 -5
0 -10 -11 -10 -25z"/>
<path d="M0 930 c0 -16 5 -30 10 -30 6 0 10 14 10 30 0 17 -4 30 -10 30 -5 0
-10 -13 -10 -30z"/>
<path d="M8260 865 c0 -14 5 -25 10 -25 6 0 10 11 10 25 0 14 -4 25 -10 25 -5
0 -10 -11 -10 -25z"/>
<path d="M0 810 c0 -16 5 -30 10 -30 6 0 10 14 10 30 0 17 -4 30 -10 30 -5 0
-10 -13 -10 -30z"/>
<path d="M8260 745 c0 -14 5 -25 10 -25 6 0 10 11 10 25 0 14 -4 25 -10 25 -5
0 -10 -11 -10 -25z"/>
<path d="M0 690 c0 -16 5 -30 10 -30 6 0 10 14 10 30 0 17 -4 30 -10 30 -5 0
-10 -13 -10 -30z"/>
<path d="M8260 625 c0 -14 5 -25 10 -25 6 0 10 11 10 25 0 14 -4 25 -10 25 -5
0 -10 -11 -10 -25z"/>
<path d="M0 570 c0 -16 5 -30 10 -30 6 0 10 14 10 30 0 17 -4 30 -10 30 -5 0
-10 -13 -10 -30z"/>
<path d="M8260 505 c0 -14 5 -25 10 -25 6 0 10 11 10 25 0 14 -4 25 -10 25 -5
0 -10 -11 -10 -25z"/>
<path d="M0 449 c0 -17 4 -28 10 -24 13 8 13 55 0 55 -5 0 -10 -14 -10 -31z"/>
<path d="M8260 385 c0 -14 5 -25 10 -25 6 0 10 11 10 25 0 14 -4 25 -10 25 -5
0 -10 -11 -10 -25z"/>
<path d="M0 343 c0 -10 5 -25 10 -33 7 -11 10 -7 10 18 0 17 -4 32 -10 32 -5
0 -10 -8 -10 -17z"/>
<path d="M8250 281 c0 -5 -3 -16 -6 -25 -3 -9 -2 -16 4 -16 5 0 12 11 14 25 3
14 1 25 -3 25 -5 0 -9 -4 -9 -9z"/>
<path d="M30 234 c0 -5 7 -19 15 -30 8 -10 15 -14 15 -8 0 5 -7 19 -15 30 -8
10 -15 14 -15 8z"/>
<path d="M8192 160 c-18 -29 -15 -36 8 -15 20 18 26 35 12 35 -4 0 -13 -9 -20
-20z"/>
<path d="M100 120 c6 -11 18 -20 27 -20 14 0 14 2 -2 20 -10 11 -22 20 -27 20
-5 0 -4 -9 2 -20z"/>
<path d="M8104 76 c-10 -8 -16 -17 -13 -20 3 -4 17 2 30 13 27 23 13 28 -17 7z"/>
<path d="M200 45 c33 -19 50 -18 26 0 -11 8 -27 15 -35 15 -10 -1 -7 -6 9 -15z"/>
<path d="M8003 32 c-24 -4 -32 -22 -10 -22 15 0 43 18 37 22 -3 2 -15 2 -27 0z"/>
<path d="M310 10 c20 -13 40 -13 40 0 0 6 -12 10 -27 10 -22 0 -25 -2 -13 -10z"/>
<path d="M420 10 c0 -5 11 -10 25 -10 14 0 25 5 25 10 0 6 -11 10 -25 10 -14
0 -25 -4 -25 -10z"/>
<path d="M540 10 c0 -5 11 -10 25 -10 14 0 25 5 25 10 0 6 -11 10 -25 10 -14
0 -25 -4 -25 -10z"/>
<path d="M660 10 c0 -5 11 -10 25 -10 14 0 25 5 25 10 0 6 -11 10 -25 10 -14
0 -25 -4 -25 -10z"/>
<path d="M780 10 c0 -5 11 -10 25 -10 14 0 25 5 25 10 0 6 -11 10 -25 10 -14
0 -25 -4 -25 -10z"/>
<path d="M900 10 c0 -5 11 -10 25 -10 14 0 25 5 25 10 0 6 -11 10 -25 10 -14
0 -25 -4 -25 -10z"/>
<path d="M1020 10 c0 -5 11 -10 25 -10 14 0 25 5 25 10 0 6 -11 10 -25 10 -14
0 -25 -4 -25 -10z"/>
<path d="M1140 10 c0 -5 11 -10 25 -10 14 0 25 5 25 10 0 6 -11 10 -25 10 -14
0 -25 -4 -25 -10z"/>
<path d="M1260 10 c0 -5 11 -10 25 -10 14 0 25 5 25 10 0 6 -11 10 -25 10 -14
0 -25 -4 -25 -10z"/>
<path d="M1380 10 c0 -5 11 -10 25 -10 14 0 25 5 25 10 0 6 -11 10 -25 10 -14
0 -25 -4 -25 -10z"/>
<path d="M1500 10 c0 -5 11 -10 25 -10 14 0 25 5 25 10 0 6 -11 10 -25 10 -14
0 -25 -4 -25 -10z"/>
<path d="M1620 10 c0 -5 11 -10 25 -10 14 0 25 5 25 10 0 6 -11 10 -25 10 -14
0 -25 -4 -25 -10z"/>
<path d="M1740 10 c0 -5 11 -10 25 -10 14 0 25 5 25 10 0 6 -11 10 -25 10 -14
0 -25 -4 -25 -10z"/>
<path d="M1860 10 c0 -5 11 -10 25 -10 14 0 25 5 25 10 0 6 -11 10 -25 10 -14
0 -25 -4 -25 -10z"/>
<path d="M1980 10 c0 -5 11 -10 25 -10 14 0 25 5 25 10 0 6 -11 10 -25 10 -14
0 -25 -4 -25 -10z"/>
<path d="M2100 10 c0 -5 11 -10 25 -10 14 0 25 5 25 10 0 6 -11 10 -25 10 -14
0 -25 -4 -25 -10z"/>
<path d="M2220 10 c0 -5 11 -10 25 -10 14 0 25 5 25 10 0 6 -11 10 -25 10 -14
0 -25 -4 -25 -10z"/>
<path d="M2340 10 c0 -5 11 -10 25 -10 14 0 25 5 25 10 0 6 -11 10 -25 10 -14
0 -25 -4 -25 -10z"/>
<path d="M2460 10 c0 -5 11 -10 25 -10 14 0 25 5 25 10 0 6 -11 10 -25 10 -14
0 -25 -4 -25 -10z"/>
<path d="M2580 10 c0 -5 11 -10 25 -10 14 0 25 5 25 10 0 6 -11 10 -25 10 -14
0 -25 -4 -25 -10z"/>
<path d="M2700 10 c0 -5 11 -10 25 -10 14 0 25 5 25 10 0 6 -11 10 -25 10 -14
0 -25 -4 -25 -10z"/>
<path d="M2820 10 c0 -5 11 -10 25 -10 14 0 25 5 25 10 0 6 -11 10 -25 10 -14
0 -25 -4 -25 -10z"/>
<path d="M2940 10 c0 -5 11 -10 25 -10 14 0 25 5 25 10 0 6 -11 10 -25 10 -14
0 -25 -4 -25 -10z"/>
<path d="M3060 10 c0 -5 11 -10 25 -10 14 0 25 5 25 10 0 6 -11 10 -25 10 -14
0 -25 -4 -25 -10z"/>
<path d="M3180 10 c0 -5 11 -10 25 -10 14 0 25 5 25 10 0 6 -11 10 -25 10 -14
0 -25 -4 -25 -10z"/>
<path d="M3300 10 c0 -5 11 -10 25 -10 14 0 25 5 25 10 0 6 -11 10 -25 10 -14
0 -25 -4 -25 -10z"/>
<path d="M3420 10 c0 -5 11 -10 25 -10 14 0 25 5 25 10 0 6 -11 10 -25 10 -14
0 -25 -4 -25 -10z"/>
<path d="M3540 10 c0 -5 11 -10 25 -10 14 0 25 5 25 10 0 6 -11 10 -25 10 -14
0 -25 -4 -25 -10z"/>
<path d="M3660 10 c0 -5 11 -10 25 -10 14 0 25 5 25 10 0 6 -11 10 -25 10 -14
0 -25 -4 -25 -10z"/>
<path d="M3780 10 c0 -5 11 -10 25 -10 14 0 25 5 25 10 0 6 -11 10 -25 10 -14
0 -25 -4 -25 -10z"/>
<path d="M3900 10 c0 -5 11 -10 25 -10 14 0 25 5 25 10 0 6 -11 10 -25 10 -14
0 -25 -4 -25 -10z"/>
<path d="M4020 10 c0 -5 11 -10 25 -10 14 0 25 5 25 10 0 6 -11 10 -25 10 -14
0 -25 -4 -25 -10z"/>
<path d="M4140 10 c0 -5 11 -10 25 -10 14 0 25 5 25 10 0 6 -11 10 -25 10 -14
0 -25 -4 -25 -10z"/>
<path d="M4260 10 c0 -5 11 -10 25 -10 14 0 25 5 25 10 0 6 -11 10 -25 10 -14
0 -25 -4 -25 -10z"/>
<path d="M4380 10 c0 -5 11 -10 25 -10 14 0 25 5 25 10 0 6 -11 10 -25 10 -14
0 -25 -4 -25 -10z"/>
<path d="M4500 10 c0 -5 11 -10 25 -10 14 0 25 5 25 10 0 6 -11 10 -25 10 -14
0 -25 -4 -25 -10z"/>
<path d="M4620 10 c0 -5 11 -10 25 -10 14 0 25 5 25 10 0 6 -11 10 -25 10 -14
0 -25 -4 -25 -10z"/>
<path d="M4740 10 c0 -5 11 -10 25 -10 14 0 25 5 25 10 0 6 -11 10 -25 10 -14
0 -25 -4 -25 -10z"/>
<path d="M4860 10 c0 -5 11 -10 25 -10 14 0 25 5 25 10 0 6 -11 10 -25 10 -14
0 -25 -4 -25 -10z"/>
<path d="M4980 10 c0 -5 11 -10 25 -10 14 0 25 5 25 10 0 6 -11 10 -25 10 -14
0 -25 -4 -25 -10z"/>
<path d="M5100 10 c0 -5 11 -10 25 -10 14 0 25 5 25 10 0 6 -11 10 -25 10 -14
0 -25 -4 -25 -10z"/>
<path d="M5220 10 c0 -5 11 -10 25 -10 14 0 25 5 25 10 0 6 -11 10 -25 10 -14
0 -25 -4 -25 -10z"/>
<path d="M5340 10 c0 -5 11 -10 25 -10 14 0 25 5 25 10 0 6 -11 10 -25 10 -14
0 -25 -4 -25 -10z"/>
<path d="M5460 10 c0 -5 11 -10 25 -10 14 0 25 5 25 10 0 6 -11 10 -25 10 -14
0 -25 -4 -25 -10z"/>
<path d="M5580 10 c0 -5 11 -10 25 -10 14 0 25 5 25 10 0 6 -11 10 -25 10 -14
0 -25 -4 -25 -10z"/>
<path d="M5700 10 c0 -5 11 -10 25 -10 14 0 25 5 25 10 0 6 -11 10 -25 10 -14
0 -25 -4 -25 -10z"/>
<path d="M5820 10 c0 -5 11 -10 25 -10 14 0 25 5 25 10 0 6 -11 10 -25 10 -14
0 -25 -4 -25 -10z"/>
<path d="M5940 10 c0 -5 11 -10 25 -10 14 0 25 5 25 10 0 6 -11 10 -25 10 -14
0 -25 -4 -25 -10z"/>
<path d="M6060 10 c0 -5 11 -10 25 -10 14 0 25 5 25 10 0 6 -11 10 -25 10 -14
0 -25 -4 -25 -10z"/>
<path d="M6180 10 c0 -5 11 -10 25 -10 14 0 25 5 25 10 0 6 -11 10 -25 10 -14
0 -25 -4 -25 -10z"/>
<path d="M6300 10 c0 -5 11 -10 25 -10 14 0 25 5 25 10 0 6 -11 10 -25 10 -14
0 -25 -4 -25 -10z"/>
<path d="M6420 10 c0 -5 11 -10 25 -10 14 0 25 5 25 10 0 6 -11 10 -25 10 -14
0 -25 -4 -25 -10z"/>
<path d="M6540 10 c0 -5 11 -10 25 -10 14 0 25 5 25 10 0 6 -11 10 -25 10 -14
0 -25 -4 -25 -10z"/>
<path d="M6660 10 c0 -5 11 -10 25 -10 14 0 25 5 25 10 0 6 -11 10 -25 10 -14
0 -25 -4 -25 -10z"/>
<path d="M6780 10 c0 -5 11 -10 25 -10 14 0 25 5 25 10 0 6 -11 10 -25 10 -14
0 -25 -4 -25 -10z"/>
<path d="M6900 10 c0 -5 11 -10 25 -10 14 0 25 5 25 10 0 6 -11 10 -25 10 -14
0 -25 -4 -25 -10z"/>
<path d="M7020 10 c0 -5 11 -10 25 -10 14 0 25 5 25 10 0 6 -11 10 -25 10 -14
0 -25 -4 -25 -10z"/>
<path d="M7140 10 c0 -5 11 -10 25 -10 14 0 25 5 25 10 0 6 -11 10 -25 10 -14
0 -25 -4 -25 -10z"/>
<path d="M7260 10 c0 -5 11 -10 25 -10 14 0 25 5 25 10 0 6 -11 10 -25 10 -14
0 -25 -4 -25 -10z"/>
<path d="M7380 10 c0 -5 11 -10 25 -10 14 0 25 5 25 10 0 6 -11 10 -25 10 -14
0 -25 -4 -25 -10z"/>
<path d="M7500 10 c0 -5 11 -10 25 -10 14 0 25 5 25 10 0 6 -11 10 -25 10 -14
0 -25 -4 -25 -10z"/>
<path d="M7620 10 c0 -5 11 -10 25 -10 14 0 25 5 25 10 0 6 -11 10 -25 10 -14
0 -25 -4 -25 -10z"/>
<path d="M7740 10 c0 -5 11 -10 25 -10 14 0 25 5 25 10 0 6 -11 10 -25 10 -14
0 -25 -4 -25 -10z"/>
<path d="M7860 10 c0 -5 11 -10 25 -10 14 0 25 5 25 10 0 6 -11 10 -25 10 -14
0 -25 -4 -25 -10z"/>
</g>
</svg>
