<svg xmlns="http://www.w3.org/2000/svg"  viewBox="0 0 200 200" width="200px" height="200px"><path fill="#c5ebe4" d="M87.215,56.71C88.35,54.555,89,52.105,89,49.5c0-6.621-4.159-12.257-10.001-14.478 C78.999,35.015,79,35.008,79,35c0-11.598-9.402-21-21-21c-9.784,0-17.981,6.701-20.313,15.757C36.211,29.272,34.638,29,33,29 c-7.692,0-14.023,5.793-14.89,13.252C12.906,43.353,9,47.969,9,53.5C9,59.851,14.149,65,20.5,65c0.177,0,0.352-0.012,0.526-0.022 C21.022,65.153,21,65.324,21,65.5C21,76.822,30.178,86,41.5,86c6.437,0,12.175-2.972,15.934-7.614C59.612,80.611,62.64,82,66,82 c4.65,0,8.674-2.65,10.666-6.518C77.718,75.817,78.837,76,80,76c6.075,0,11-4.925,11-11C91,61.689,89.53,58.727,87.215,56.71z"/><path fill="#fbfaed" d="M87.213,39.5c-0.187,0-0.364,0.033-0.545,0.055c-0.221-1.72-1.674-3.055-3.455-3.055 c-1.087,0-2.045,0.505-2.687,1.282c0.11-0.412,0.187-0.836,0.187-1.282c0-2.761-2.239-5-5-5c-2.671,0-4.833,2.1-4.973,4.736 c-0.458-0.583-1.055-1.048-1.74-1.352V49h2.713v-0.5h6c0,0,7.015,0,9.5,0c2.485,0,4.5-2.015,4.5-4.5S89.698,39.5,87.213,39.5z"/><path fill="#472b29" d="M77.213,38c1.403,0,2.609,0.999,2.913,2.341C80.493,40.119,80.912,40,81.338,40 c1.202,0,2.198,0.897,2.353,2.068C83.894,42.022,84.087,42,84.276,42c1.529,0,2.811,1.2,2.918,2.732 c0.009,0.138-0.095,0.258-0.232,0.268c-0.006,0-0.012,0-0.018,0c-0.13,0-0.24-0.101-0.249-0.232 c-0.089-1.271-1.151-2.268-2.419-2.268c-0.229,0-0.47,0.042-0.738,0.127c-0.022,0.007-0.045,0.01-0.067,0.01 c-0.055,0-0.11-0.02-0.156-0.054c-0.064-0.046-0.102-0.128-0.102-0.208c0-1.034-0.841-1.875-1.875-1.875 c-0.447,0-0.885,0.168-1.231,0.473c-0.047,0.041-0.106,0.063-0.165,0.063c-0.032,0-0.063-0.006-0.093-0.019 c-0.088-0.035-0.148-0.117-0.155-0.212c-0.104-1.293-1.193-2.305-2.481-2.305c-0.208,0-0.425,0.034-0.682,0.107 c-0.023,0.007-0.047,0.01-0.07,0.01c-0.109,0-0.207-0.073-0.239-0.182c-0.038-0.133,0.039-0.271,0.172-0.309 C76.696,38.04,76.957,38,77.213,38L77.213,38z"/><path fill="#472b29" d="M87.213,39c-0.048,0-0.095,0.002-0.142,0.005C86.624,37.261,85.044,36,83.213,36 c-0.71,0-1.398,0.192-2,0.547c0-0.016,0-0.031,0-0.047c0-3.033-2.467-5.5-5.5-5.5c-2.555,0-4.719,1.76-5.317,4.164 c-0.42-0.353-0.893-0.625-1.396-0.821v1.095c0.512,0.263,0.974,0.633,1.346,1.107c0.096,0.123,0.242,0.192,0.392,0.192 c0.051,0,0.102-0.008,0.152-0.024c0.199-0.063,0.338-0.242,0.349-0.45C71.366,33.872,73.332,32,75.713,32 c2.481,0,4.5,2.019,4.5,4.5c0,0.352-0.054,0.718-0.169,1.153c-0.06,0.227,0.045,0.466,0.254,0.573 c0.072,0.038,0.15,0.056,0.228,0.056c0.145,0,0.288-0.064,0.386-0.182c0.578-0.699,1.416-1.1,2.301-1.1 c1.496,0,2.768,1.125,2.959,2.618c0.033,0.252,0.249,0.437,0.495,0.437c0.021,0,0.041-0.001,0.062-0.004l0.141-0.019 C86.983,40.017,87.096,40,87.213,40c2.206,0,4,1.794,4,4s-1.794,4-4,4h-15.5c-0.276,0-0.5,0.224-0.5,0.5s0.224,0.5,0.5,0.5h15.5 c2.757,0,5-2.243,5-5C92.213,41.243,89.97,39,87.213,39z"/><path fill="#fff" d="M27.5,77h-10c-0.276,0-0.5-0.224-0.5-0.5s0.224-0.5,0.5-0.5h10c0.276,0,0.5,0.224,0.5,0.5 S27.777,77,27.5,77z"/><path fill="#fff" d="M30.5,77h-1c-0.276,0-0.5-0.224-0.5-0.5s0.224-0.5,0.5-0.5h1c0.276,0,0.5,0.224,0.5,0.5 S30.777,77,30.5,77z"/><path fill="#fff" d="M35.491,79H26.5c-0.276,0-0.5-0.224-0.5-0.5s0.224-0.5,0.5-0.5h8.991c0.276,0,0.5,0.224,0.5,0.5 S35.767,79,35.491,79z"/><path fill="#fff" d="M24.5,79h-1c-0.276,0-0.5-0.224-0.5-0.5s0.224-0.5,0.5-0.5h1c0.276,0,0.5,0.224,0.5,0.5 S24.777,79,24.5,79z"/><path fill="#fff" d="M21.5,79h-2c-0.276,0-0.5-0.224-0.5-0.5s0.224-0.5,0.5-0.5h2c0.276,0,0.5,0.224,0.5,0.5 S21.777,79,21.5,79z"/><path fill="#fff" d="M27.5,81h-2c-0.276,0-0.5-0.224-0.5-0.5s0.224-0.5,0.5-0.5h2c0.276,0,0.5,0.224,0.5,0.5 S27.776,81,27.5,81z"/><path fill="#fff" d="M30.5,72c-0.177,0-0.823,0-1,0c-0.276,0-0.5,0.224-0.5,0.5s0.224,0.5,0.5,0.5c0.177,0,0.823,0,1,0 c0.276,0,0.5-0.224,0.5-0.5S30.776,72,30.5,72z"/><path fill="#fff" d="M30.5,74c-0.177,0-4.823,0-5,0c-0.276,0-0.5,0.224-0.5,0.5s0.224,0.5,0.5,0.5c0.177,0,4.823,0,5,0 c0.276,0,0.5-0.224,0.5-0.5S30.776,74,30.5,74z"/><path fill="#fff" d="M35.5,76c-0.177,0-2.823,0-3,0c-0.276,0-0.5,0.224-0.5,0.5s0.224,0.5,0.5,0.5c0.177,0,2.823,0,3,0 c0.276,0,0.5-0.224,0.5-0.5S35.776,76,35.5,76z"/><path fill="#fff" d="M86.5,70h-10c-0.276,0-0.5-0.224-0.5-0.5s0.224-0.5,0.5-0.5h10c0.276,0,0.5,0.224,0.5,0.5 S86.776,70,86.5,70z"/><path fill="#fff" d="M90.5,70h-2c-0.276,0-0.5-0.224-0.5-0.5s0.224-0.5,0.5-0.5h2c0.276,0,0.5,0.224,0.5,0.5 S90.776,70,90.5,70z"/><path fill="#fff" d="M95.5,72h-10c-0.276,0-0.5-0.224-0.5-0.5s0.224-0.5,0.5-0.5h10c0.276,0,0.5,0.224,0.5,0.5 S95.777,72,95.5,72z"/><path fill="#fff" d="M83.5,72h-1c-0.276,0-0.5-0.224-0.5-0.5s0.224-0.5,0.5-0.5h1c0.276,0,0.5,0.224,0.5,0.5 S83.776,72,83.5,72z"/><path fill="#fff" d="M80.47,72H78.5c-0.276,0-0.5-0.224-0.5-0.5s0.224-0.5,0.5-0.5h1.97c0.276,0,0.5,0.224,0.5,0.5 S80.746,72,80.47,72z"/><path fill="#fff" d="M89.5,68h-5c-0.276,0-0.5-0.224-0.5-0.5s0.224-0.5,0.5-0.5h5c0.276,0,0.5,0.224,0.5,0.5 S89.777,68,89.5,68z"/><path fill="#fff" d="M86.5,74h-2c-0.276,0-0.5-0.224-0.5-0.5s0.224-0.5,0.5-0.5h2c0.276,0,0.5,0.224,0.5,0.5 S86.776,74,86.5,74z"/><g><path fill="#fbfaed" d="M22.287,50.5c0,0-1.567,0-3.5,0s-3.5-1.567-3.5-3.5c0-1.781,1.335-3.234,3.055-3.455 c-0.028-0.179-0.055-0.358-0.055-0.545c0-1.933,1.567-3.5,3.5-3.5c1.032,0,1.95,0.455,2.59,1.165 c0.384-1.808,1.987-3.165,3.91-3.165c2.209,0,4,1.791,4,4c0,0.191-0.03,0.374-0.056,0.558c0.428-0.344,0.964-0.558,1.556-0.558 c1.228,0,2.245,0.887,2.455,2.055c0.179-0.028,0.358-0.055,0.545-0.055c1.933,0,3.5,1.567,3.5,3.5s-1.567,3.5-3.5,3.5 s-7.5,0-7.5,0V51h-7V50.5z"/><path fill="#472b29" d="M20.537,46c0.138,0,0.25-0.112,0.25-0.25c0-1.223-0.995-2.218-2.218-2.218 c-0.034,0.009-0.737-0.001-1.244,0.136c-0.133,0.036-0.212,0.173-0.176,0.306c0.036,0.134,0.173,0.213,0.306,0.176 c0.444-0.12,1.1-0.12,1.113-0.118c0.948,0,1.719,0.771,1.719,1.718C20.287,45.888,20.399,46,20.537,46z"/><circle cx="27.287" cy="50.5" r=".5" fill="#472b29"/><path fill="#472b29" d="M18.787,51h3.5c0.276,0,0.5-0.224,0.5-0.5s-0.224-0.5-0.5-0.5h-3.5c-1.654,0-3-1.346-3-3 c0-1.496,1.125-2.768,2.618-2.959c0.134-0.018,0.255-0.088,0.336-0.196c0.081-0.108,0.115-0.244,0.094-0.377 c-0.023-0.154-0.048-0.308-0.048-0.468c0-1.654,1.346-3,3-3c0.85,0,1.638,0.355,2.219,1c0.125,0.139,0.321,0.198,0.5,0.148 c0.182-0.049,0.321-0.195,0.36-0.379C25.207,39.165,26.646,38,28.287,38c1.93,0,3.5,1.57,3.5,3.5c0,0.143-0.021,0.28-0.041,0.418 c-0.029,0.203,0.063,0.438,0.242,0.54c0.179,0.102,0.396,0.118,0.556-0.01C32.909,42.155,33.338,42,33.787,42 c0.966,0,1.792,0.691,1.963,1.644c0.048,0.267,0.296,0.446,0.569,0.405C36.473,44.025,36.627,44,36.787,44c1.654,0,3,1.346,3,3 s-1.346,3-3,3h-7.5c-0.276,0-0.5,0.224-0.5,0.5s0.224,0.5,0.5,0.5h7.5c2.206,0,4-1.794,4-4s-1.794-4-4-4 c-0.059,0-0.116,0.002-0.174,0.006C36.199,41.82,35.076,41,33.787,41c-0.349,0-0.689,0.061-1.011,0.18 C32.611,38.847,30.661,37,28.287,37c-1.831,0-3.466,1.127-4.153,2.774C23.454,39.276,22.632,39,21.787,39c-2.206,0-4,1.794-4,4 c0,0.048,0.001,0.095,0.004,0.142c-1.743,0.448-3.004,2.027-3.004,3.858C14.787,49.206,16.581,51,18.787,51z"/><path fill="#472b29" d="M24.287,50c0.159,0,0.841,0,1,0c0.276,0,0.5,0.224,0.5,0.5s-0.224,0.5-0.5,0.5 c-0.159,0-0.841,0-1,0c-0.276,0-0.5-0.224-0.5-0.5S24.011,50,24.287,50z"/></g><g><polygon fill="#e83e54" points="33,54 54,75 75.5,53.5 79,57 54.5,81.5 30,57"/><polygon fill="#e83e54" points="54,70 29,45 54,20 79,45 66.5,57.5 57.5,48.5 64.5,41.5 54.5,31.5 44.5,41.5 63.5,60.5"/><path fill="#472b29" d="M54,70.7c-0.179,0-0.358-0.068-0.495-0.205l-25-25c-0.273-0.273-0.273-0.717,0-0.99l25-25 c0.273-0.273,0.717-0.273,0.99,0l25,25c0.273,0.273,0.273,0.717,0,0.99l-12.5,12.5c-0.273,0.273-0.717,0.273-0.99,0l-9-9 c-0.273-0.273-0.273-0.717,0-0.99L63.51,41.5l-9.01-9.01l-9.01,9.01l18.505,18.505c0.273,0.273,0.273,0.717,0,0.99l-9.5,9.5 C54.358,70.632,54.179,70.7,54,70.7z M29.99,45L54,69.01l8.51-8.51L44.005,41.995c-0.273-0.273-0.273-0.717,0-0.99l10-10 c0.273-0.273,0.717-0.273,0.99,0l10,10c0.273,0.273,0.273,0.717,0,0.99L58.49,48.5l8.01,8.01L78.01,45L54,20.99L29.99,45z"/><path fill="#472b29" d="M54.5,82.2c-0.179,0-0.358-0.068-0.495-0.205l-24.5-24.5c-0.273-0.273-0.273-0.717,0-0.99l3-3 c0.273-0.273,0.717-0.273,0.99,0L54,74.01l21.005-21.005c0.273-0.273,0.717-0.273,0.99,0l3.5,3.5c0.273,0.273,0.273,0.717,0,0.99 l-24.5,24.5C54.858,82.132,54.679,82.2,54.5,82.2z M30.99,57L54.5,80.51L78.01,57l-2.51-2.51L54.495,75.495 c-0.273,0.273-0.717,0.273-0.99,0L33,54.99L30.99,57z"/><path fill="#472b29" d="M53,54.5c-0.128,0-0.256-0.049-0.354-0.146l-1.5-1.5c-0.195-0.195-0.195-0.512,0-0.707 s0.512-0.195,0.707,0l1.5,1.5c0.195,0.195,0.195,0.512,0,0.707C53.256,54.451,53.128,54.5,53,54.5z"/><path fill="#472b29" d="M59,60.5c-0.128,0-0.256-0.049-0.354-0.146l-4-4c-0.195-0.195-0.195-0.512,0-0.707 s0.512-0.195,0.707,0l4,4c0.195,0.195,0.195,0.512,0,0.707C59.256,60.451,59.128,60.5,59,60.5z"/><path fill="#472b29" d="M66.5,53c-0.128,0-0.256-0.049-0.354-0.146l-1-1c-0.195-0.195-0.195-0.512,0-0.707 s0.512-0.195,0.707,0l1,1c0.195,0.195,0.195,0.512,0,0.707C66.756,52.951,66.628,53,66.5,53z"/><path fill="#472b29" d="M64,50.5c-0.128,0-0.256-0.049-0.354-0.146l-1.5-1.5c-0.195-0.195-0.195-0.512,0-0.707 s0.512-0.195,0.707,0l1.5,1.5c0.195,0.195,0.195,0.512,0,0.707C64.256,50.451,64.128,50.5,64,50.5z"/></g></svg>